<svg width="321" height="625" viewBox="0 0 321 625" fill="none" xmlns="http://www.w3.org/2000/svg">
<path d="M156.034 14.0981C155.259 13.8034 154.393 14.1922 154.098 14.9665C153.803 15.7407 154.192 16.6073 154.967 16.9019L156.034 14.0981ZM209.5 334L208.925 332.614L209.5 334ZM81.6254 611.219C82.2984 611.702 83.2356 611.548 83.7186 610.875C84.2017 610.202 84.0477 609.265 83.3747 608.781L81.6254 611.219ZM83.3747 608.781C81.4159 607.375 79.4963 605.975 77.6155 604.579L75.8277 606.988C77.7216 608.393 79.654 609.804 81.6254 611.219L83.3747 608.781ZM66.6261 596.133C62.9027 593.164 59.3572 590.219 55.9861 587.297L54.0212 589.564C57.425 592.514 61.0021 595.485 64.7558 598.478L66.6261 596.133ZM45.6615 577.903C42.1821 574.57 38.9331 571.267 35.9087 567.996L33.7058 570.032C36.774 573.351 40.0658 576.697 43.5861 580.069L45.6615 577.903ZM26.8845 557.496C23.8868 553.719 21.1932 549.985 18.7939 546.292L16.2782 547.926C18.7329 551.705 21.4826 555.516 24.5348 559.361L26.8845 557.496ZM11.9349 534.258C9.82846 529.954 8.12695 525.707 6.81332 521.515L3.95059 522.412C5.31245 526.758 7.07166 531.146 9.24027 535.577L11.9349 534.258ZM3.89937 508.177C3.3347 503.566 3.24173 499.015 3.59899 494.52L0.608425 494.283C0.235107 498.979 0.332638 503.732 0.921615 508.541L3.89937 508.177ZM6.03095 481.089C7.25147 476.783 8.88693 472.519 10.9209 468.295L8.21793 466.993C6.11418 471.363 4.41537 475.788 3.14464 480.271L6.03095 481.089ZM17.7823 456.359C20.2514 452.665 23.0229 449.001 26.0848 445.365L23.79 443.432C20.6633 447.146 17.8242 450.898 15.2882 454.691L17.7823 456.359ZM35.485 435.175C38.6705 431.999 42.0734 428.845 45.6848 425.711L43.7186 423.446C40.0594 426.621 36.6054 429.822 33.367 433.05L35.485 435.175ZM56.4392 416.907C60.0099 414.14 63.7395 411.389 67.6212 408.653L65.8928 406.201C61.9768 408.961 58.2106 411.739 54.6016 414.536L56.4392 416.907ZM79.1541 400.853C82.9707 398.371 86.9092 395.902 90.9645 393.444L89.4095 390.879C85.329 393.352 81.3637 395.838 77.519 398.337L79.1541 400.853ZM103 386.374C106.969 384.112 111.035 381.858 115.193 379.613L113.768 376.974C109.591 379.229 105.505 381.493 101.514 383.768L103 386.374ZM127.514 373.122C131.588 371.026 135.739 368.937 139.964 366.855L138.638 364.164C134.398 366.254 130.231 368.35 126.141 370.455L127.514 373.122ZM152.529 360.784C156.689 358.812 160.913 356.846 165.197 354.885L163.949 352.157C159.653 354.124 155.417 356.095 151.244 358.073L152.529 360.784ZM177.959 349.138C182.17 347.271 186.435 345.408 190.749 343.55L189.562 340.794C185.238 342.657 180.964 344.524 176.743 346.396L177.959 349.138ZM203.582 338.094C205.735 337.19 207.899 336.288 210.074 335.386L208.925 332.614C206.746 333.518 204.578 334.422 202.421 335.328L203.582 338.094ZM210.074 335.386C212.304 334.461 214.494 333.528 216.646 332.586L215.442 329.838C213.309 330.772 211.137 331.697 208.925 332.614L210.074 335.386ZM229.098 326.827C233.427 324.712 237.581 322.558 241.562 320.366L240.116 317.738C236.178 319.905 232.068 322.037 227.781 324.132L229.098 326.827ZM253.527 313.35C257.549 310.834 261.367 308.275 264.986 305.676L263.236 303.24C259.671 305.8 255.907 308.323 251.936 310.806L253.527 313.35ZM275.992 297.145C279.686 294.046 283.123 290.897 286.314 287.704L284.191 285.584C281.066 288.712 277.693 291.801 274.064 294.846L275.992 297.145ZM295.681 277.348C298.712 273.626 301.438 269.853 303.871 266.036L301.341 264.423C298.972 268.139 296.315 271.819 293.355 275.454L295.681 277.348ZM310.622 253.798C312.643 249.491 314.325 245.142 315.686 240.761L312.821 239.871C311.501 244.12 309.869 248.341 307.906 252.524L310.622 253.798ZM318.891 227.135C319.644 222.504 320.068 217.851 320.186 213.189L317.187 213.113C317.072 217.644 316.66 222.161 315.93 226.654L318.891 227.135ZM319.648 199.213C319.185 194.609 318.446 190.007 317.455 185.419L314.522 186.052C315.492 190.537 316.212 195.027 316.663 199.513L319.648 199.213ZM313.821 171.948C312.409 167.568 310.782 163.21 308.96 158.883L306.195 160.047C307.985 164.299 309.582 168.576 310.966 172.868L313.821 171.948ZM303.064 146.266C300.964 142.175 298.701 138.12 296.292 134.109L293.721 135.654C296.097 139.611 298.327 143.607 300.395 147.636L303.064 146.266ZM288.776 122.411C286.174 118.609 283.45 114.856 280.618 111.16L278.237 112.984C281.037 116.64 283.73 120.35 286.3 124.105L288.776 122.411ZM271.901 100.344C268.916 96.8172 265.84 93.3513 262.689 89.9539L260.49 91.9939C263.611 95.3591 266.656 98.7911 269.612 102.283L271.901 100.344ZM253.032 79.9803C249.734 76.7155 246.374 73.5265 242.967 70.4207L240.946 72.6376C244.323 75.7163 247.653 78.877 250.921 82.1124L253.032 79.9803ZM232.524 61.2777C228.953 58.2751 225.347 55.3671 221.723 52.5618L219.887 54.934C223.479 57.7148 227.053 60.5974 230.594 63.5741L232.524 61.2777ZM210.576 44.2933C206.744 41.5726 202.91 38.9739 199.091 36.5063L197.463 39.0261C201.244 41.4695 205.043 44.0436 208.84 46.7394L210.576 44.2933ZM187.268 29.256C183.152 26.8681 179.076 24.6475 175.064 22.6063L173.703 25.2801C177.664 27.295 181.691 29.4892 185.762 31.8509L187.268 29.256ZM162.419 16.6786C160.262 15.7575 158.132 14.8965 156.034 14.0981L154.967 16.9019C157.026 17.6855 159.118 18.5314 161.241 19.4377L162.419 16.6786Z" fill="#EEEEEE"/>
<circle cx="162" cy="15" r="15" fill="#987A4D"/>
<circle cx="84" cy="610" r="15" fill="#987A4D"/>
</svg>
