<?xml version="1.0" encoding="UTF-8"?><svg xmlns="http://www.w3.org/2000/svg" viewBox="0 0 64.08 64.08"><defs><style>.d{fill:#99b7a1;}.e{fill:#fff;}.f{fill:none;}</style></defs><g id="a"/><g id="b"><g id="c"><circle class="d" cx="32.04" cy="32.04" r="32.04"/><g><path class="e" d="M30.33,6.44l.32-.26,1.56,1.95c.33-.36,.64-.7,.95-1.04,.21-.23,.4-.47,.61-.69,.07-.07,.19-.1,.28-.14l.07,.11c-.19,.22-.37,.44-.56,.66-.29,.33-.57,.68-.89,.99-.26,.25-.27,.43-.03,.7,1.24,1.44,2.46,2.91,3.7,4.35,3.46,4.03,6.92,8.05,10.38,12.07,1.25,1.45,2.5,2.91,3.75,4.36,.05,.05,.09,.11,.17,.21-.13,.02-.22,.04-.31,.04-.86,0-1.72,.02-2.58,0-.33,0-.42,.1-.43,.42-.02,1.89-.05,3.78-.08,5.68-.05,3.13-.1,6.27-.15,9.4-.02,1.31-.04,2.63-.08,3.94,0,.37,.02,.76-.09,1.09-.12,.35-.33,.72-.61,.96-.75,.64-1.71,.81-2.65,1.01-.33,.07-.68,.11-1.02,.16-.23,.03-.34,.14-.34,.39,.01,.66,0,1.33,0,1.99q0,.51-.5,.51c-2.72,0-5.43,0-8.15,0-3.72,0-7.45,0-11.17,0q-.5,0-.51-.5c0-.64-.02-1.28,0-1.92,.01-.34-.13-.44-.44-.48-1.13-.16-2.25-.36-3.27-.93-.62-.35-.95-.86-.96-1.61-.03-2.79-.11-5.58-.16-8.36-.05-2.8-.1-5.6-.15-8.4-.02-.96-.04-1.92-.04-2.87,0-.34-.09-.47-.46-.47-1.02,.02-2.04,0-3.14,0,.11-.15,.18-.25,.26-.34,3.38-3.93,6.76-7.86,10.14-11.79,2.58-3,5.16-6,7.74-8.99,.19-.22,.2-.37,.02-.59-.42-.51-.83-1.03-1.26-1.59Zm2.17,38.98c.13,.01,.19,.02,.25,.02,1.98,0,3.96,0,5.93,0,.09,0,.17,0,.26-.01,2.64-.39,4.54-2.59,4.54-5.25,0-3.28,0-6.56,0-9.84,0-.54,0-.55-.55-.55-7.3,0-14.59,0-21.89,0-.53,0-.53,0-.53,.53,0,3.21,0,6.42,0,9.62,0,.48,.04,.96,.14,1.42,.47,2.21,2.34,3.95,4.61,4.06,2.22,.11,4.45,.02,6.67,.03,.23,0,.3-.09,.3-.3,0-.49-.02-.98,0-1.47,.02-.41-.08-.61-.52-.74-1.75-.51-2.54-1.87-2.17-3.66,.27-1.33,1.01-2.44,1.81-3.5,.2-.27,.42-.53,.63-.79,1.11,1.03,2.38,3.09,2.77,4.48,.46,1.63-.06,2.79-1.5,3.38-.18,.07-.38,.11-.56,.19-.09,.04-.21,.13-.21,.2-.02,.72,0,1.44,0,2.19Zm-.62-36.31l-.13-.05c-5.77,6.71-11.54,13.42-17.32,20.13l.05,.09h.39c3.87,0,7.74,0,11.61,0,.35,0,.48-.1,.58-.43,1.72-5.82,3.22-11.69,4.46-17.63,.15-.7,.24-1.41,.36-2.12Zm17.74,20.17l.05-.1c-5.77-6.71-11.55-13.43-17.32-20.14l-.11,.07c.05,.27,.09,.55,.14,.82,.45,2.7,1.04,5.36,2.22,7.86,.87,1.84,1.91,3.55,3.51,4.85,.25,.21,.24,.33,.08,.59-1.05,1.76-1.58,3.61-.87,5.65,.1,.29,.21,.4,.53,.4,3.8-.01,7.59,0,11.39,0h.39Zm-27.35,25.72h19.78c.01-.07,.03-.12,.03-.16,0-1.28,0-2.56,0-3.84,0-.21-.08-.44-.17-.63-.4-.83-1.1-1.14-1.98-1.14-3.28,0-6.56,0-9.84,0-1.89,0-3.78,0-5.68,0-1.48,0-2.21,1.1-2.14,2.14,.05,.82,.01,1.65,.01,2.47,0,.38,0,.76,0,1.16Zm20.07-2.81c.47-.07,.87-.12,1.26-.2,.88-.17,1.75-.38,2.51-.89,.33-.22,.57-.51,.62-.92,.04-.4,.06-.81,.07-1.21,.05-2.48,.09-4.96,.12-7.44,.02-1.25,.02-2.51,.04-3.76,.04-2.56,.09-5.11,.15-7.66,0-.3-.09-.38-.38-.37-.85,.02-1.7,.03-2.54,0-.39-.01-.47,.12-.46,.48,.01,3.28,0,6.56,0,9.85,0,.34-.01,.69-.07,1.03-.34,1.95-1.43,3.32-3.21,4.16-.91,.43-1.87,.48-2.84,.45-.32-.01-.46,.08-.45,.43,.03,.67,0,1.35,0,2.03,0,.26,0,.53,0,.8,.16,.01,.25,.02,.35,.02,.82,0,1.65,0,2.47,0,1.62,.01,2.44,1.24,2.36,2.36-.02,.25,0,.51,0,.86Zm-15.14-3.22c0-1-.01-1.94,0-2.87,0-.33-.11-.42-.42-.42-.6,0-1.21,.05-1.8-.04-2.85-.48-4.71-2.73-4.71-5.62,0-3.29,0-6.59,0-9.88,0-.33-.09-.42-.41-.41-.7,.02-1.4,0-2.1,0-.5,0-.51,0-.5,.49,.05,2.53,.1,5.06,.14,7.59,.07,4,.16,8.01,.21,12.01,0,.63,.25,1.06,.77,1.36,1.04,.61,2.2,.8,3.37,.96,.19,.03,.27-.05,.27-.24,0-.26,0-.52,0-.77,.03-1.07,.8-1.96,1.86-2.09,.53-.06,1.08-.05,1.62-.06,.55,0,1.1,0,1.7,0Zm4.87-38.76c-1.42,6.45-3.04,12.75-4.83,19.04h9.89c-1.83-6.3-3.69-12.56-5.06-19.04Zm.15,35.54c-1.46,0-2.92,0-4.38,0-.28,0-.4,.08-.4,.37,.01,.82,.01,1.65,0,2.47,0,.27,.1,.37,.37,.37,2.91,0,5.82,0,8.73,0,.29,0,.39-.11,.38-.4-.01-.8-.02-1.6,0-2.39,0-.33-.11-.42-.43-.42-1.42,.01-2.85,0-4.27,0Zm-.2-10.41c-.9,1.11-1.69,2.2-2.09,3.51-.13,.42-.19,.86-.2,1.3-.02,1.05,.54,1.76,1.42,2.28,.91,.54,1.77,.43,2.62-.14,.69-.46,.95-1.12,.9-1.93-.06-.9-.41-1.71-.84-2.49-.49-.89-1.08-1.72-1.81-2.53Zm2.14-17.8l-.11,.04,2.57,9.08c.1-.09,.13-.11,.13-.12,.14-1.21,.54-2.33,1.16-3.38,.05-.08,.02-.3-.05-.36-1.61-1.36-2.68-3.11-3.55-5-.04-.09-.11-.18-.16-.26Z"/><g><path class="f" d="M30.33,6.44l.32-.26,1.56,1.95c.33-.36,.64-.7,.95-1.04,.21-.23,.4-.47,.61-.69,.07-.07,.19-.1,.28-.14l.07,.11c-.19,.22-.37,.44-.56,.66-.29,.33-.57,.68-.89,.99-.26,.25-.27,.43-.03,.7,1.24,1.44,2.46,2.91,3.7,4.35,3.46,4.03,6.92,8.05,10.38,12.07,1.25,1.45,2.5,2.91,3.75,4.36,.05,.05,.09,.11,.17,.21-.13,.02-.22,.04-.31,.04-.86,0-1.72,.02-2.58,0-.33,0-.42,.1-.43,.42-.02,1.89-.05,3.78-.08,5.68-.05,3.13-.1,6.27-.15,9.4-.02,1.31-.04,2.63-.08,3.94,0,.37,.02,.76-.09,1.09-.12,.35-.33,.72-.61,.96-.75,.64-1.71,.81-2.65,1.01-.33,.07-.68,.11-1.02,.16-.23,.03-.34,.14-.34,.39,.01,.66,0,1.33,0,1.99q0,.51-.5,.51c-2.72,0-5.43,0-8.15,0-3.72,0-7.45,0-11.17,0q-.5,0-.51-.5c0-.64-.02-1.28,0-1.92,.01-.34-.13-.44-.44-.48-1.13-.16-2.25-.36-3.27-.93-.62-.35-.95-.86-.96-1.61-.03-2.79-.11-5.58-.16-8.36-.05-2.8-.1-5.6-.15-8.4-.02-.96-.04-1.92-.04-2.87,0-.34-.09-.47-.46-.47-1.02,.02-2.04,0-3.14,0,.11-.15,.18-.25,.26-.34,3.38-3.93,6.76-7.86,10.14-11.79,2.58-3,5.16-6,7.74-8.99,.19-.22,.2-.37,.02-.59-.42-.51-.83-1.03-1.26-1.59Zm2.17,38.98c.13,.01,.19,.02,.25,.02,1.98,0,3.96,0,5.93,0,.09,0,.17,0,.26-.01,2.64-.39,4.54-2.59,4.54-5.25,0-3.28,0-6.56,0-9.84,0-.54,0-.55-.55-.55-7.3,0-14.59,0-21.89,0-.53,0-.53,0-.53,.53,0,3.21,0,6.42,0,9.62,0,.48,.04,.96,.14,1.42,.47,2.21,2.34,3.95,4.61,4.06,2.22,.11,4.45,.02,6.67,.03,.23,0,.3-.09,.3-.3,0-.49-.02-.98,0-1.47,.02-.41-.08-.61-.52-.74-1.75-.51-2.54-1.87-2.17-3.66,.27-1.33,1.01-2.44,1.81-3.5,.2-.27,.42-.53,.63-.79,1.11,1.03,2.38,3.09,2.77,4.48,.46,1.63-.06,2.79-1.5,3.38-.18,.07-.38,.11-.56,.19-.09,.04-.21,.13-.21,.2-.02,.72,0,1.44,0,2.19Zm-.62-36.31l-.13-.05c-5.77,6.71-11.54,13.42-17.32,20.13l.05,.09h.39c3.87,0,7.74,0,11.61,0,.35,0,.48-.1,.58-.43,1.72-5.82,3.22-11.69,4.46-17.63,.15-.7,.24-1.41,.36-2.12Zm17.74,20.17l.05-.1c-5.77-6.71-11.55-13.43-17.32-20.14l-.11,.07c.05,.27,.09,.55,.14,.82,.45,2.7,1.04,5.36,2.22,7.86,.87,1.84,1.91,3.55,3.51,4.85,.25,.21,.24,.33,.08,.59-1.05,1.76-1.58,3.61-.87,5.65,.1,.29,.21,.4,.53,.4,3.8-.01,7.59,0,11.39,0h.39Zm-27.35,25.72h19.78c.01-.07,.03-.12,.03-.16,0-1.28,0-2.56,0-3.84,0-.21-.08-.44-.17-.63-.4-.83-1.1-1.14-1.98-1.14-3.28,0-6.56,0-9.84,0-1.89,0-3.78,0-5.68,0-1.48,0-2.21,1.1-2.14,2.14,.05,.82,.01,1.65,.01,2.47,0,.38,0,.76,0,1.16Zm20.07-2.81c.47-.07,.87-.12,1.26-.2,.88-.17,1.75-.38,2.51-.89,.33-.22,.57-.51,.62-.92,.04-.4,.06-.81,.07-1.21,.05-2.48,.09-4.96,.12-7.44,.02-1.25,.02-2.51,.04-3.76,.04-2.56,.09-5.11,.15-7.66,0-.3-.09-.38-.38-.37-.85,.02-1.7,.03-2.54,0-.39-.01-.47,.12-.46,.48,.01,3.28,0,6.56,0,9.85,0,.34-.01,.69-.07,1.03-.34,1.95-1.43,3.32-3.21,4.16-.91,.43-1.87,.48-2.84,.45-.32-.01-.46,.08-.45,.43,.03,.67,0,1.35,0,2.03,0,.26,0,.53,0,.8,.16,.01,.25,.02,.35,.02,.82,0,1.65,0,2.47,0,1.62,.01,2.44,1.24,2.36,2.36-.02,.25,0,.51,0,.86Zm-15.14-3.22c0-1-.01-1.94,0-2.87,0-.33-.11-.42-.42-.42-.6,0-1.21,.05-1.8-.04-2.85-.48-4.71-2.73-4.71-5.62,0-3.29,0-6.59,0-9.88,0-.33-.09-.42-.41-.41-.7,.02-1.4,0-2.1,0-.5,0-.51,0-.5,.49,.05,2.53,.1,5.06,.14,7.59,.07,4,.16,8.01,.21,12.01,0,.63,.25,1.06,.77,1.36,1.04,.61,2.2,.8,3.37,.96,.19,.03,.27-.05,.27-.24,0-.26,0-.52,0-.77,.03-1.07,.8-1.96,1.86-2.09,.53-.06,1.08-.05,1.62-.06,.55,0,1.1,0,1.7,0Zm4.87-38.76c-1.42,6.45-3.04,12.75-4.83,19.04h9.89c-1.83-6.3-3.69-12.56-5.06-19.04Zm.15,35.54c-1.46,0-2.92,0-4.38,0-.28,0-.4,.08-.4,.37,.01,.82,.01,1.65,0,2.47,0,.27,.1,.37,.37,.37,2.91,0,5.82,0,8.73,0,.29,0,.39-.11,.38-.4-.01-.8-.02-1.6,0-2.39,0-.33-.11-.42-.43-.42-1.42,.01-2.85,0-4.27,0Zm-.2-10.41c-.9,1.11-1.69,2.2-2.09,3.51-.13,.42-.19,.86-.2,1.3-.02,1.05,.54,1.76,1.42,2.28,.91,.54,1.77,.43,2.62-.14,.69-.46,.95-1.12,.9-1.93-.06-.9-.41-1.71-.84-2.49-.49-.89-1.08-1.72-1.81-2.53Zm2.14-17.8l-.11,.04,2.57,9.08c.1-.09,.13-.11,.13-.12,.14-1.21,.54-2.33,1.16-3.38,.05-.08,.02-.3-.05-.36-1.61-1.36-2.68-3.11-3.55-5-.04-.09-.11-.18-.16-.26Z"/><g><path class="e" d="M36.79,26.54s-.03-.03-.04-.04c0,.02,.02,.04,.04,.04Z"/><polygon class="e" points="37.81 22.95 37.8 22.94 37.8 22.94 37.81 22.95"/><path class="e" d="M37.8,22.94h-.04s.03,.01,.04,0Z"/><path class="e" d="M36.49,26.23s-.04-.07-.07-.1l.07,.1Z"/><path class="e" d="M36.48,26.66s0,.01,0,.03c0-.01,0-.02,0-.03Z"/><path class="e" d="M35.85,22.92h.02s-.01,0-.02,0Z"/><path class="e" d="M35.73,22.66l-.02-.06h0s.01,.05,.02,.06Z"/><path class="e" d="M35.72,22.78l-.02-.06s.01,.04,.02,.06Z"/><path class="e" d="M34.85,21.06h-.03s.02,0,.03,0Z"/><path class="e" d="M35.91,22.98s-.02-.03-.04-.04c.02,.02,.03,.06,.04,.04Z"/><path class="e" d="M36.81,26.54h-.02s.01,0,.02,0Z"/><path class="e" d="M36.42,25.97h0s0,.02,0,0Z"/><path class="e" d="M36.74,21.89l-.09-.08c.05,.07,.08,.09,.09,.08Z"/><path class="e" d="M36.07,23.95c-.08,.07-.04-.14-.13-.11,.04,.07,.07,.12,.03,.17-.07-.05-.04-.16-.12-.16l.06,.1c-.02,.08-.1,0-.08,.07,.13,.07,.05,.33,.1,.43l-.02-.03v.17h.01c-.03,.08-.03,.21,.02,.34,.07,.03,.14,.42,.2,.46-.03-.05-.04-.1-.05-.17h.07c.03,.12-.06,.02,.01,.13,.09-.05-.05-.17-.06-.26,.03,.03,.06,.06,.09,.12-.05-.18-.06-.36-.19-.45,0-.06,.05-.04,.07,0-.09-.11,.03-.11-.05-.2,.1,.01,.12,.25,.2,.35-.02,.18,.1,.38,.17,.55-.06,.03-.15-.09-.17,0,0,.19,.09,.17,.15,.26,.01,.13-.1,.04-.05,.25l-.08-.11c-.06,.14,.07,.1,.07,.19,.02-.04,.04-.04,0-.14,.03-.02,.07,.05,.08,.09v-.02c.05,.03,.1,.03,.12,.16-.08-.06-.01,.11-.03,.15l-.02-.03c.04,.09,.06,.19,.09,.24h-.01c.04,.06,.11,.07,.13,.17l-.12-.03h0s0,0,0,.01l.09,.03s-.12-.08-.08,.01c-.04,0-.08-.13-.1-.23,.01,.11-.04,.18-.08,.05-.04,.05,.06,.11,.05,.18,.01-.02,.04,0,.05,0-.02,0-.02,.02-.02,.04l.02,.14,.18-.08c.06-.03,.18-.21,.1-.23,.01,.06-.02,.1-.05,.14-.03-.03,.02-.17-.04-.15,.02,0,.03-.02,.03-.04,.03-.1-.02-.3,.05-.35l-.05,.04c.07-.25,.01-.49,.06-.76,0,.1,.1,.13,.03,.28,.08-.24,.11-.05,.18-.11,.08-.18-.07-.12-.08-.19l-.02,.14c-.07-.2,.15-.48,.17-.76,.03,0,0,.06,0,.1,.09-.1,.03-.11,.03-.19,.05-.12,.13-.25,.17-.15,.07-.12-.05,0-.04-.08l.02-.02-.02-.17c.07-.1,.16-.22,.25-.24,.11-.26-.11-.16-.04-.35,.09-.09,.04,.04,.06,.07l.08-.16c.04,.09-.06,.21,.03,.24-.02-.18,.07-.19,.11-.4h-.01c-.01-.07,.06-.18,.12-.27,.02-.03,.03-.06,.03-.08,.02,.02,.02,.06,0,.1l-.06,.14s.06-.07,.09-.13c.08-.14-.03-.35-.13-.32-.03-.05-.14-.19-.04-.14-.19-.19-.17,.02-.32-.16l.05-.04c-.12-.24-.42-.29-.52-.52l-.07,.04c-.01-.06-.07-.15-.06-.19l.1,.07c-.02-.12-.13-.05-.18-.17-.02,.02,.01,.13,0,.15,.34,.32,.63,.73,1.01,.99,.02,.01,.04,.03,.06,.05,0-.01,0-.03,.03-.03,0,.04,.03,.11-.02,.11h0s-.01,.07-.05,.09c-.03,.02-.08,.06-.1,.09,.02,.07-.16,.24-.05,.23l-.09,.05s.06,.05,.05,.11c-.05,.08-.08,.07-.07-.01-.2,.3-.36,.71-.46,1.07v-.11c-.06,.08-.04,.33-.12,.22-.02,.19-.18,.47-.07,.51-.14,.09-.16,.42-.19,.67,.1-.02-.01,.21,.02,.28-.08,.02-.04-.22-.09-.23,.04,.12-.02,.36-.04,.44-.02,.04,0,0-.07,.09l.36,.1s-.06-.07-.1-.08c0-.03,0-.03,.02-.03-.01-.05,0-.12,0-.17-.04-.02-.03,.09-.07-.02-.02-.09,.05-.06,.06-.1-.09-.16-.18-.43-.27-.43,0-.06,.03-.12,.06-.07-.14-.26-.06-.26-.18-.53,.03,.1,.09,.03,.1,.17,.07-.14-.14-.42-.14-.65l-.09-.07c-.05-.13,.01-.16,.06-.07-.02-.24-.1-.35-.15-.52,0-.01,.02,0,.03,.02l-.07-.25s-.08-.1-.12-.07c.05,.02,.09,.07,.1,.21Z"/><polygon class="e" points="35.97 23.74 35.96 23.74 35.97 23.75 35.97 23.74"/><path class="e" d="M36.32,26.09s.01-.05,.01-.07c0,.02-.01,.03-.01,.07Z"/><path class="e" d="M35.19,21.43c-.09,.06,.06,.15,.06,.26-.04-.1-.1-.06-.12-.03,.17,.09,.02,.16,.11,.39-.04,.02-.08-.1-.13-.1,.07,.12,.14,.32,.23,.32,.06,.22,.08,.39,.13,.52-.07-.15-.08,0-.18-.11,.13,.14,.34,.47,.51,.68-.07,.05-.08,.06-.16,.06,.02,.28,.1,.06,.14,.32l-.02-.12c.06,.11,.14,.1,.2,.12l-.1-.29c.06-.01,.1,.17,.13,.22,.09,.07,0-.17,.06-.16-.06-.03-.07-.15-.12-.22l.03-.02c0-.15-.11-.2-.14-.33,0-.01,.01-.02,.02-.02-.05-.03-.1-.07-.13-.14l.02,.06c-.1-.09-.22-.34-.25-.14l-.06-.31c.09,.01,.22,.04,.28,.21h.04c0-.13-.16-.34-.21-.24-.23-.08-.14-.46-.28-.66,.05-.03,.1,.09,.15,.13,.02,.06,.04,.11,0,.13,.11,.28,.15-.1,.22,.22,.02,.16-.14-.17-.08,.07l.19,.13c-.04-.14-.1-.27-.15-.38-.28-.62-.32-1.09-.32-1.09l-.85-2.82c-.1-.29-.13-.4-.3-.48-.01,.07,.05,.25-.01,.2,.06,.02,.12,.12,.16,.28-.05,.03-.06-.13-.07-.09v.03s-.05-.03-.07-.08c-.03,.19,.08,.52,.21,.61-.01,.16-.11-.07-.17-.13,.1,.51,.2,.84,.34,1.34,.09-.02,.07,.03,.15,.09l-.02,.05s.09,.03,.08-.08c.01,.31,.22,.31,.31,.49h-.05c.05,.16,.07,.21,.13,.34-.01,.29-.08-.23-.17-.12l.04,.07c-.06-.03-.15-.06-.2-.13,.15,.23,.07,.37,.21,.62-.06-.02-.17-.25-.2-.32,.02,.09,.11,.25,.06,.27h.07c.05,.16-.07,0-.09,.06,.12,.38,.23,0,.36,.3Z"/><path class="e" d="M36.25,25.32s-.02-.09-.04-.12c.01,.04,.02,.08,.04,.12Z"/><path class="e" d="M35.91,24.59h-.03s.02,0,.03,0Z"/><path class="e" d="M35.79,24.54s.04,.02,.08,.04c-.03-.04-.07-.17-.08-.04Z"/><path class="e" d="M34.39,17.53s-.11-.1-.11-.07l.1,.13v-.06Z"/><path class="e" d="M34.48,17.84l.04,.15,.13,.05c-.07-.14-.1-.05-.17-.2Z"/><path class="e" d="M34.62,18.24l-.03-.02s.03,.03,.03,.02Z"/><path class="e" d="M34.65,18.23l.09,.02-.13-.15,.02,.07s0,.06-.02,.07l.08,.04s-.04-.04-.04-.06Z"/><path class="e" d="M34.73,18.38v-.02s0,0,0,.02Z"/><path class="e" d="M34.79,18.77s.07,0,.1,0c-.04-.14-.14-.11-.17-.24,.14,.16,0-.08,0-.16-.04,.06-.04,.15,0,.29h.04c.04,.07,0,.04,0,.1Z"/><path class="e" d="M35.26,19.42l-.11-.07s-.08-.2-.02-.22c-.04-.05-.07-.05-.11-.09,0-.06,0-.11-.06-.14,.1,.27,.04,.21,.15,.43-.01,0-.03-.03-.04-.05l.05,.16c.08-.03,.18,.15,.15,0Z"/><path class="e" d="M35.34,19.65c-.07-.11-.16-.14-.16-.07l.18,.21c-.04-.07-.1-.15-.02-.15Z"/><path class="e" d="M35.43,19.81c0,.06-.02,.17,.09,.21-.09-.12,.03-.11-.09-.21Z"/><path class="e" d="M35.9,20.63l-.11-.23c.04-.09,.09,.09,.17,.13-.11-.19-.09-.12-.23-.22-.03-.05-.12-.11-.18-.16,.24,.24,.08,.37,.35,.49Z"/><polygon class="e" points="35.68 20.16 35.63 20.15 35.72 20.24 35.68 20.16"/><path class="e" d="M36.18,21.17c.02,.18,.23,.2,.31,.36-.02-.01-.01,0-.05-.02l.1,.11v.02s.14,.06,.22,.08c-.05-.16-.11-.01-.14-.16,.04,0,.09,0,.12,0-.08-.05-.12-.04-.17-.05-.07-.07-.02-.07-.01-.09-.1-.06-.16-.01-.25-.15-.03-.12,.1,0-.03-.13-.02,.13-.1-.16-.19-.18-.07-.12-.07-.23-.03-.22-.06,.05-.18-.02-.25-.09l.18,.16-.02,.11c.11,.08,.16,.16,.23,.26h-.02Z"/><path class="e" d="M36.75,21.57l.04,.03s-.03-.02-.04-.03Z"/><polygon class="e" points="36.06 20.7 36.11 20.73 36.1 20.68 36.06 20.7"/><path class="e" d="M36.87,21.62s-.05-.01-.03,.01h.03Z"/><polygon class="e" points="36.93 21.76 36.94 21.85 37 21.86 36.93 21.76"/><path class="e" d="M37.35,24.4c.07-.08,0-.09-.02-.13-.07,.14,.04,.02,.02,.13Z"/><path class="e" d="M36.91,26.31c.05-.1,.01-.21,.04-.32-.05,.09-.05,.23-.04,.32Z"/><path class="e" d="M36.22,26.35s.05,.06,.04,0l.13,.08c-.01-.17-.12-.09-.17-.07Z"/><path class="e" d="M35.94,25.44l.08,.14-.02-.08c.05,.03,.08,.05,.13,.1-.05-.1-.12-.2-.19-.16Z"/><path class="e" d="M36.18,25.72l-.02-.05s-.02,.03,.02,.05Z"/><path class="e" d="M36.14,25.61l-.02-.02,.04,.08s0-.03-.02-.06Z"/><path class="e" d="M35.96,25.31l-.08-.26v.1c.08,0,0,.13,.08,.15Z"/><path class="e" d="M35.63,23.94l.05-.04c-.03-.17-.22-.34-.15-.46-.02,.08-.11-.12-.07,.08,.08,.06,.15,.3,.17,.42Z"/><path class="e" d="M35.55,23.31s.03-.02,.04-.05c0-.06-.05-.12-.07-.08,.09,.03-.03,.08,.03,.13Z"/><path class="e" d="M35.33,22.55s.04,.11,.04,.04c-.04-.14-.1-.09-.16-.15,0,.13,.12,.21,.13,.11Z"/><path class="e" d="M35.45,21.3s0,.14,.02,.16c-.02-.03-.02-.11-.02-.16Z"/><polygon class="e" points="35.01 21.39 35.01 21.43 35.11 21.46 35.01 21.39"/><polygon class="e" points="34.73 20.54 34.65 20.45 34.7 20.61 34.73 20.54"/><path class="e" d="M34.69,20.37l-.04-.14v.06c0,.07,.03,.04,.04,.09Z"/><path class="e" d="M34.56,19.94s0,.03,0,.04l.07,.12-.07-.16Z"/><path class="e" d="M34.24,17.56s.03-.01,.02-.04l-.13,.25s.08-.04,.11-.04c0-.01-.07-.04-.12,0l.1-.19s.01,.02,.02,.03Z"/></g><g><path class="e" d="M31.82,42.52s-.04,0-.05,.01c.02,0,.03,0,.05-.01Z"/><path class="e" d="M34.53,40.82v-.02h0v.02Z"/><path class="e" d="M34.52,40.81l-.03-.04c0,.05,.02,.05,.03,.04Z"/><path class="e" d="M31.43,42.59s-.07-.01-.11-.01h.11Z"/><path class="e" d="M31.76,42.85s0,.01,.02,.02c0,0-.01-.02-.02-.02Z"/><path class="e" d="M30,40.14h.01s0,0-.01,0Z"/><path class="e" d="M29.96,39.89v-.06h0s0,.04,0,.06Z"/><path class="e" d="M29.92,39.99v-.05s0,.04,0,.05Z"/><path class="e" d="M29.98,38.18l-.03-.02s.02,.02,.03,.02Z"/><path class="e" d="M30.04,40.2s-.02-.03-.03-.04c0,.02,.01,.06,.03,.04Z"/><path class="e" d="M31.83,42.5h-.01s.02,0,.01,0Z"/><path class="e" d="M31.2,42.47h0s.01,0,0,0Z"/><path class="e" d="M34.35,39.42l-.04-.1c.02,.08,.03,.1,.04,.1Z"/><path class="e" d="M30.09,41.03c-.07,.07-.05-.12-.13-.08,.04,.06,.07,.1,.04,.15-.07-.03-.05-.14-.13-.14,.02,.03,.04,.06,.06,.09,0,.08-.1,.01-.07,.07,.13,.04,.1,.31,.17,.39l-.03-.03c.01,.06,.03,.11,.05,.16h.02c0,.08,.04,.21,.15,.3,.07,0,.33,.29,.41,.28-.05-.02-.09-.05-.14-.11l.06-.05c.09,.08-.04,.06,.08,.1,.05-.09-.13-.11-.19-.18,.04,0,.08,.02,.13,.05-.13-.12-.22-.25-.37-.29-.02-.05,.03-.06,.06-.04-.12-.06-.02-.1-.12-.16,.09-.02,.19,.17,.3,.21,.06,.16,.26,.25,.4,.34-.03,.06-.17,.03-.13,.1,.11,.14,.17,.07,.27,.1,.09,.09-.05,.1,.12,.21l-.13-.03c.05,.14,.12,.03,.18,.09-.01-.04,0-.06-.09-.1,0-.03,.08,0,.12,0h-.02c.06-.03,.09-.07,.19,0-.1,.02,.07,.08,.09,.12h-.03l.23,.07h0c.07,0,.12-.05,.21,0-.02,.03-.15,.06-.04,.09-.02,.03-.15,0-.24-.04,.09,.05,.12,.13,0,.09,.02,.07,.12,.01,.18,.06,0-.02,.02-.03,.02-.05-.02,.07,.25,.06,.25,0-.04,0-.09,.01-.13,.02,0-.06,.16-.07,.12-.11,.05,.1,.31,0,.37,.06l-.04-.05c.25,.02,.43-.12,.64-.21-.07,.05-.05,.15-.2,.16,.23-.04,.09,.08,.17,.11,.19-.02,.06-.12,.11-.17l-.11,.06c.12-.15,.45-.14,.63-.34,.03,.02-.03,.04-.06,.07,.13,0,.09-.07,.13-.12,.1-.05,.23-.12,.21-.02,.12-.06-.04-.03,0-.09h.03l.05-.15c.1-.05,.21-.12,.3-.12,.15-.22-.07-.17,0-.33,.08-.07,.04,.04,.06,.07,.02-.05,.05-.09,.07-.15,.05,.09-.06,.19,.03,.23-.01-.17,.08-.18,.09-.38h-.01c-.03-.09,.07-.25,.07-.37,.03,.05,.01,.17,0,.25,.07-.11,.09-.43,0-.54,.02-.07,.05-.22,.09-.12,0-.25-.12-.1-.11-.31h.06c.07-.25-.14-.44-.12-.67h-.08s0-.15,.03-.17l.06,.1c.04-.11-.09-.09-.08-.22-.02,0-.04,.12-.07,.12,.17,.44,.14,.92,.18,1.38,.01-.02,.02-.04,.04-.02-.02,.05-.02,.14-.06,.12v-.02c0,.12-.12,.21-.14,.27,.04,.06-.1,.21,0,.2l-.08,.05s.06,.04,.06,.1c-.05,.07-.08,.05-.07-.01-.17,.25-.41,.51-.67,.71l.05-.08c-.07,.03-.2,.22-.2,.09-.11,.12-.39,.16-.35,.27-.14-.06-.36,.08-.58,.11,.05,.1-.17,.04-.23,.08-.03-.07,.18-.08,.18-.13-.22,.14-.56-.12-.7,.03-.02-.01-.02-.02-.01-.03-.04-.01-.08-.06-.12-.09-.04,.02,.05,.07-.06,.04-.07-.04-.01-.07-.03-.1-.16-.02-.39-.13-.45-.08-.03-.04-.05-.11,0-.09-.25-.09-.2-.14-.42-.27,.07,.05,.08-.03,.17,.07-.01-.14-.31-.23-.4-.42l-.1-.02c-.09-.09-.03-.13,.04-.08-.08-.18-.17-.25-.24-.39,0-.01,.02-.01,.03,.01-.03-.07-.06-.13-.08-.2-.02-.01-.08-.08-.12-.05,.05,.01,.08,.05,.1,.17Z"/><polygon class="e" points="29.99 40.85 29.98 40.85 29.98 40.86 29.99 40.85"/><path class="e" d="M31.22,42.63s-.03-.04-.04-.06c0,.02,.02,.03,.04,.06Z"/><path class="e" d="M30.04,38.65c-.11,0-.03,.15-.09,.24,.01-.1-.05-.1-.09-.09,.1,.16-.07,.14-.1,.38-.05,0-.03-.12-.07-.14,0,.14-.02,.34,.05,.38-.04,.22-.08,.37-.07,.5-.02-.16-.08-.03-.13-.16,.07,.17,.16,.55,.3,.75-.08,.04-.09,.05-.17,.03,0,.28,.08,.07,.12,.31v-.12c.04,.11,.12,.09,.18,.11-.03-.09-.05-.17-.07-.26,.05,0,.08,.16,.11,.2,.09,.06,.02-.15,.08-.13-.05-.03-.06-.13-.08-.19h.03c.02-.14-.06-.2-.06-.31,0-.01,.02-.01,.02,0-.03-.04-.08-.08-.08-.16v.06c-.07-.1-.09-.36-.19-.2l.06-.29c.08,.04,.19,.12,.18,.28l.03,.02c.05-.11-.02-.35-.1-.28-.18-.16,.07-.44,.05-.66,.06,0,.04,.12,.07,.18,0,.06-.02,.11-.06,.1-.03,.27,.17-.02,.1,.27-.05,.14-.05-.19-.1,.02l.12,.17c.01-.13,.01-.25,.02-.36,.04-.61,.3-.98,.3-.98,.33-.83,.83-1.6,1.38-2.33,.16-.24,.23-.32,.19-.5-.06,.03-.16,.18-.16,.1,.02,.06-.02,.16-.12,.28-.05-.02,.06-.13,.03-.1l-.02,.02s-.01-.06,.02-.1c-.17,.08-.35,.35-.34,.51-.13,.08-.01-.13,0-.21-.33,.37-.51,.64-.78,1.07,.08,.06,.02,.07,.04,.17l-.05,.02s.05,.08,.11,0c-.21,.21-.06,.35-.11,.54l-.04-.03c-.06,.14-.08,.19-.12,.32-.19,.19,.08-.21-.06-.19v.07c-.04-.06-.09-.13-.08-.22-.04,.26-.18,.31-.23,.58-.04-.05,.02-.29,.04-.36-.04,.08-.07,.25-.12,.24l.06,.04c-.05,.15-.05-.04-.11-.01-.13,.36,.18,.13,.11,.44Z"/><path class="e" d="M30.68,42.11s-.06-.06-.09-.07c.03,.03,.06,.05,.09,.07Z"/><path class="e" d="M30.05,41.65h-.03s.02,.01,.03,0Z"/><path class="e" d="M29.93,41.64s.04,0,.1,.01c-.05-.03-.12-.14-.1-.01Z"/><path class="e" d="M32.24,35.28s-.11-.07-.11-.04l.11,.09v-.06Z"/><path class="e" d="M32.37,35.55l.07,.13h.13c-.1-.1-.1,0-.2-.13Z"/><path class="e" d="M32.59,35.89h-.04s.04,0,.04,0Z"/><path class="e" d="M32.62,35.87h.09l-.16-.11,.03,.06s0,.06,0,.07l.08,.02s-.05-.03-.05-.04Z"/><path class="e" d="M32.72,35.99v-.02s0,.01,0,.02Z"/><path class="e" d="M32.84,36.35s.07,0,.1-.01c-.06-.13-.15-.08-.2-.19,.16,.12-.01-.08-.02-.15-.03,.07-.02,.15,.06,.27h.04s0,.03,.02,.09Z"/><path class="e" d="M33.36,36.91l-.12-.06s-.09-.18-.03-.21c-.04-.05-.07-.04-.12-.07,0-.06,0-.1-.08-.13,.12,.25,.06,.19,.18,.39-.01,0-.03-.02-.04-.05l.06,.15c.07-.03,.19,.13,.14-.02Z"/><path class="e" d="M33.44,37.12c-.07-.1-.16-.13-.16-.05l.18,.19c-.04-.06-.1-.14-.02-.14Z"/><path class="e" d="M33.54,37.28c0,.06-.02,.16,.08,.2-.08-.11,.04-.11-.08-.2Z"/><path class="e" d="M33.93,38.08l-.08-.23c.05-.08,.08,.09,.15,.14-.08-.19-.08-.12-.2-.23-.02-.05-.11-.11-.16-.16,.21,.24,.04,.35,.29,.49Z"/><polygon class="e" points="33.77 37.61 33.72 37.6 33.8 37.69 33.77 37.61"/><path class="e" d="M34.09,38.63c-.03,.17,.16,.23,.18,.4-.01-.01-.01,0-.04-.03l.06,.13h-.02c.05-.01,.12,.11,.18,.16,.02-.16-.09-.05-.07-.19,.04,.02,.08,.03,.11,.05-.06-.07-.1-.08-.14-.11-.04-.08,0-.07,.02-.09-.07-.09-.15-.05-.19-.21,0-.11,.1,.02,0-.13-.05,.12-.06-.17-.14-.2-.04-.12-.03-.22,.02-.22-.06,.04-.17-.04-.23-.11l.15,.17-.04,.1c.09,.09,.12,.17,.16,.28h-.01Z"/><path class="e" d="M34.5,39.14l.03,.04s-.02-.03-.03-.04Z"/><polygon class="e" points="34.08 38.16 34.12 38.2 34.12 38.15 34.08 38.16"/><path class="e" d="M34.59,39.23s-.04-.03-.03,0l.05,.03-.02-.03Z"/><polygon class="e" points="34.58 39.38 34.55 39.46 34.6 39.49 34.58 39.38"/><path class="e" d="M33.98,42.18c.09-.04,.05-.08,.03-.12-.12,.09,.03,.04-.03,.12Z"/><path class="e" d="M32.23,42.89c.11,.05,.22-.02,.32-.03-.1-.02-.23,0-.32,.03Z"/><path class="e" d="M31.35,42.88s.08,0,.02-.03l.14-.06c-.14-.09-.15,.04-.16,.09Z"/><path class="e" d="M30.5,42.38l.15,.06-.06-.05c.06,0,.09,0,.16,0-.1-.05-.22-.08-.25-.01Z"/><path class="e" d="M30.87,42.46l-.05-.03s0,.04,.05,.03Z"/><path class="e" d="M30.77,42.4h-.02l.07,.03s-.01-.03-.05-.03Z"/><path class="e" d="M30.44,42.27c-.07-.05-.14-.12-.21-.18l.06,.09c.06-.03,.07,.12,.15,.09Z"/><path class="e" d="M29.65,41.06l.05-.05c-.04-.16-.21-.36-.13-.48-.03,.08-.09-.14-.08,.07,.07,.08,.12,.33,.16,.45Z"/><path class="e" d="M29.61,40.42s.03-.02,.05-.04c0-.06-.02-.12-.05-.09,.08,.05-.05,.07,0,.13Z"/><path class="e" d="M29.63,39.65s0,.12,.02,.05c.01-.14-.06-.12-.09-.19-.06,.12,.03,.23,.07,.15Z"/><path class="e" d="M30.33,38.7c-.06,0-.08,.1-.07,.13,0-.04,.04-.09,.07-.13Z"/><polygon class="e" points="29.92 38.53 29.89 38.56 29.95 38.63 29.92 38.53"/><polygon class="e" points="30.21 37.72 30.21 37.6 30.15 37.75 30.21 37.72"/><path class="e" d="M30.3,37.58l.06-.13-.04,.03c-.05,.05,0,.05-.02,.09Z"/><path class="e" d="M30.5,37.19s-.02,.02-.03,.03l-.03,.13,.07-.16Z"/><path class="e" d="M32.07,35.56c.02,.06,.08-.06,.11-.09,0-.01-.11,0-.11,.09Z"/></g><g><path class="e" d="M31.37,48.77s-.05,.02-.06,.02c.03,0,.05,0,.06-.02Z"/><path class="e" d="M36.43,48.83h0Z"/><path class="e" d="M36.44,48.83l.05-.03c-.07,.01-.07,.02-.05,.03Z"/><path class="e" d="M30.9,48.97s-.09,.02-.13,.04l.13-.04Z"/><path class="e" d="M31.41,49.1s.01,.01,.03,.02c-.01,0-.02-.01-.03-.02Z"/><path class="e" d="M27.71,48.17v.02s0-.02,0-.02Z"/><path class="e" d="M27.66,47.82v-.08h0s0,.06,0,.08Z"/><path class="e" d="M27.62,47.96v-.07s0,.05,0,.07Z"/><path class="e" d="M27.65,45.58v-.03s0,.03,0,.03Z"/><path class="e" d="M27.75,48.25s-.02-.04-.03-.06c0,.03,.01,.08,.03,.06Z"/><path class="e" d="M31.38,48.75h-.01s.02,0,.01,0Z"/><path class="e" d="M30.57,48.97h0s.02,0,0,0Z"/><path class="e" d="M36.78,47.4v-.15c-.02,.11-.01,.14,0,.15Z"/><path class="e" d="M28.06,48.75c.05,.09-.18,0-.17,.09,.1-.02,.17-.03,.21,.01-.08,.05-.2,0-.24,.07l.14-.03c.09,.04-.03,.1,.05,.09,.12-.11,.41,.04,.55,.03h-.05l.2,.06h.01c.08,.04,.23,.08,.41,.06,.06-.06,.54-.02,.62-.07-.07,.01-.13,.02-.22,0v-.07c.17,0,.02,.07,.18,.02-.03-.1-.22,0-.33-.01,.04-.02,.1-.04,.17-.05-.23,0-.44-.04-.6,.06-.06-.02-.03-.06,.01-.07-.16,.06-.12-.06-.26,0,.05-.09,.34-.05,.48-.1,.21,.07,.48,0,.71,0,0,.07-.15,.12-.06,.16,.23,.04,.23-.04,.36-.07,.16,.02,.02,.11,.28,.12l-.15,.04c.15,.09,.14-.04,.26-.02-.04-.02-.04-.05-.17-.05-.01-.03,.09-.05,.13-.05h-.03c.05-.05,.07-.1,.23-.07-.1,.06,.13,.04,.17,.07h-.04c.12,0,.24,0,.32,0h0c.09,0,.12-.08,.25-.06-.01,.03-.17,.1-.02,.09-.02,.04-.18,.05-.31,.03,.13,.02,.2,.08,.04,.09,.04,.05,.15-.02,.24,0-.02-.02,.01-.03,0-.05,0,.07,.31,0,.32-.04l-.16,.04c-.01-.06,.18-.1,.12-.13,.07,.09,.42-.04,.5,.03l-.06-.05c.32,.03,.59-.08,.92-.1-.11,.03-.12,.13-.32,.09,.31,.02,.09,.1,.18,.15,.24,.04,.12-.09,.2-.12l-.17,.02c.21-.12,.62,.03,.95-.05,.02,.03-.07,.02-.11,.03,.15,.06,.14-.01,.23-.04,.15,0,.34,.04,.24,.11,.17,.02-.02-.04,.07-.07l.03,.02,.18-.08c.15,.02,.32,.06,.39,.13,.34-.01,.12-.16,.37-.19,.14,.04-.03,.06-.04,.08h.22c-.08,.07-.26,.03-.24,.13,.18-.1,.25-.03,.5-.09h-.02c.11-.07,.36-.03,.51-.04-.06,.04-.22,.04-.32,.06,.16,.03,.58,0,.7-.09,.07,.02,.23-.04,.15,.05,.14-.08,.09-.16,.08-.18-.02-.04-.04-.04-.03-.17h.06c.09-.3-.08-.6,0-.9l-.08-.02c.03-.06,.05-.19,.08-.22l.03,.15c.07-.13-.06-.15-.02-.3-.02,0-.08,.13-.1,.13,.02,.32,0,.63,0,.95-.01,.38,.02,.47-.32,.49,.02,0,.05,.02,.04,.04-.07-.02-.2,0-.18-.04h.02c-.17,.01-.32-.08-.42-.08-.07,.05-.34-.02-.27,.07l-.11-.06s-.02,.08-.09,.1c-.11,0-.12-.04-.03-.07-.44-.04-.95-.03-1.4,0l.12-.04c-.11-.02-.39,.08-.3-.03-.22,.04-.6-.03-.61,.08-.14-.11-.53-.05-.83-.03,.05,.1-.25,.03-.33,.07-.04-.07,.25-.08,.26-.13-.31,.12-.87-.08-1,.11-.04,0-.04-.02-.03-.02-.06,0-.14-.03-.2-.04-.04,.03,.09,.05-.05,.06-.11,0-.05-.06-.1-.09-.22,.04-.57,.06-.6,.14-.06-.02-.13-.06-.06-.08-.35,.06-.33-.01-.69,.03,.12,0,.06-.08,.24-.05-.14-.11-.54,.02-.82-.04l-.11,.07c-.17,.01-.18-.05-.06-.08-.29-.04-.44,0-.66,0-.01,0,0-.02,.03-.02h-.32s-.14,.05-.12,.09c.03-.04,.1-.06,.28-.04Z"/><polygon class="e" points="27.79 48.79 27.78 48.8 27.79 48.8 27.79 48.79"/><path class="e" d="M30.68,49.1s-.06-.03-.08-.03c.02,.01,.04,.02,.08,.03Z"/><path class="e" d="M27.48,46.17c-.11,.04,.02,.19-.01,.33-.02-.13-.08-.1-.11-.08,.14,.16-.03,.2,0,.5-.04,0-.05-.14-.1-.16,.03,.17,.05,.42,.13,.46,0,.28-.03,.48-.01,.65-.03-.2-.08-.04-.14-.19,.09,.2,.2,.69,.31,.96-.08,.04-.09,.07-.17,.04,0,.22,.09,.22,.11,.23,.04,0,.06,.01,.22,.05-.05-.01-.1-.03-.14-.06,.16,.04,.17-.07,.21-.11-.08,0-.15-.01-.18-.08,.04-.01,.11,.05,.14,.03,.04-.06-.03-.06,.02-.1-.04,.03-.04,.01-.05-.02h.03c.03-.17-.05-.29-.04-.44,0-.01,.02-.02,.02-.01-.04-.06-.08-.11-.09-.21v.07c-.07-.14-.12-.48-.2-.25l.02-.38c.08,.04,.21,.12,.21,.34l.03,.03c.05-.17-.06-.47-.13-.36-.2-.17,0-.59-.09-.87,.05-.02,.07,.14,.11,.2,0,.09,0,.15-.04,.15,.03,.37,.17-.08,.15,.33-.03,.2-.09-.25-.09,.05l.15,.21c0-.18-.03-.35-.05-.5-.02-.21-.04-.4-.04-.57,0-.15,0-.37,0-.37,.04-.08,.1-.03,.09-.04l3.6-.05c.38-.02,.52-.01,.67-.16-.08-.03-.31-.02-.23-.07-.04,.05-.18,.08-.38,.08-.02-.05,.18-.03,.13-.04h-.04s.05-.05,.12-.05c-.22-.08-.64-.06-.79,.04-.18-.05,.12-.08,.22-.12-.63-.04-1.06-.03-1.7-.04-.01,.09-.07,.06-.15,.12l-.05-.03s-.06,.08,.06,.1c-.37-.07-.44,.12-.69,.17l.02-.05c-.21,0-.27,0-.45,.04-.33-.09,.29-.01,.2-.13l-.1,.02c.05-.05,.12-.13,.22-.16-.33,.1-.43-.08-.83,.07,0-.04,.12-.1,.23-.11,.1-.02,.2-.03,.24-.03-.11,0-.33,.03-.38,0l-.02,.07c-.26,.1,0-.07-.1-.08-.19,.08-.23,.2-.23,.26,0,.06,.03,.08,.05,.09,.06,.03,.1,.05,.12,.24Z"/><path class="e" d="M29.74,48.96c-.06,0-.11,0-.16,0h.16Z"/><path class="e" d="M28.76,49.09l-.02,.02s.02-.01,.02-.02Z"/><path class="e" d="M28.67,49.18s.04-.03,.08-.07c-.06,.02-.23,.02-.08,.07Z"/><path class="e" d="M32.35,45.55s-.16,.04-.13,.06l.19-.02-.06-.03Z"/><path class="e" d="M32.72,45.63l.18,.03,.12-.09c-.2,0-.11,.06-.31,.07Z"/><path class="e" d="M33.24,45.68l-.04,.02s.05-.02,.04-.02Z"/><path class="e" d="M33.25,45.64l.07-.07-.24,.05h.09s.06,.05,.07,.06l.09-.05s-.07,.02-.08,0Z"/><path class="e" d="M33.46,45.63l-.02-.02s0,.01,.02,.02Z"/><path class="e" d="M33.92,45.76s.05-.06,.06-.09c-.18-.03-.19,.07-.36,.04,.25-.05-.09-.04-.17-.08,.05,.06,.14,.11,.33,.12l.02-.04c.1,0,.05,.02,.12,.04Z"/><path class="e" d="M34.9,45.66l-.15,.06s-.26-.03-.25-.09c-.08,0-.1,.04-.16,.05-.06-.03-.11-.06-.19-.01,.35,.04,.25,.06,.55,.08,0,.01-.04,.01-.08,0l.2,.03c.02-.08,.28-.08,.08-.13Z"/><path class="e" d="M35.19,45.7c-.16,0-.25,.06-.17,.1l.34-.05c-.1,0-.22,0-.17-.05Z"/><path class="e" d="M35.43,45.7c.06,.03,.17,.1,.28,.04-.18,.01-.1-.08-.28-.04Z"/><path class="e" d="M36.58,45.76l-.31-.04c-.06-.08,.15-.03,.25-.06-.27-.02-.18,.01-.39,.06-.08,0-.2,.04-.29,.06,.41-.07,.43,.13,.74-.02Z"/><polygon class="e" points="35.95 45.68 35.92 45.71 36.07 45.69 35.95 45.68"/><path class="e" d="M36.82,46.29c-.1,.19,.06,.36,.01,.58,0-.02-.01,0-.03-.05v.18h-.01c.06,0,.08,.19,.13,.27,.06-.19-.07-.1,0-.26,.03,.04,.07,.07,.09,.11-.03-.11-.06-.14-.1-.19,0-.12,.03-.08,.05-.09-.03-.14-.12-.14-.1-.35,.05-.13,.08,.08,.06-.15-.1,.11,.02-.24-.05-.31,0-.15-.08-.26-.03-.26-.05,.05-.19,.05-.3,.08,.09-.02,.17-.03,.25,0,0,.04,0,.08-.02,.11,.08,.07,.06,.2,.05,.35v-.02Z"/><path class="e" d="M37,47.12l.02,.06s0-.04-.02-.06Z"/><path class="e" d="M36.8,45.72s.06,.02,.08,.03c-.01-.02-.02-.04-.04-.06l-.05,.02Z"/><path class="e" d="M37.06,47.26s-.03-.05-.03-.01l.04,.06v-.04Z"/><polygon class="e" points="37.01 47.43 36.96 47.52 37 47.58 37.01 47.43"/><path class="e" d="M34.43,49c.12,.03,.11-.03,.13-.07-.19-.01,0,.05-.13,.07Z"/><path class="e" d="M31.99,49.07c.14,.04,.27-.02,.4-.02-.12-.03-.29-.01-.4,.02Z"/><path class="e" d="M30.96,49.27s.08-.03,0-.04l.13-.1c-.2-.03-.15,.1-.14,.14Z"/><path class="e" d="M29.78,49.28l.19-.04h-.1s.08-.06,.16-.1c-.14,.02-.28,.06-.25,.14Z"/><path class="e" d="M30.2,49.13h-.07s.03,.03,.07,0Z"/><path class="e" d="M30.05,49.14h.08s-.04-.02-.08,0Z"/><path class="e" d="M29.63,49.23h-.33l.13,.03c.03-.06,.15,.04,.2-.03Z"/><path class="e" d="M27.9,49.18l-.03-.06c-.08,0-.3,.03-.45-.06-.15-.09-.2-.28-.16-.37-.02,.16-.1-.28-.07,.14,.05,.08,.14,.24,.31,.3,.19,.07,.34,.04,.4,.06Z"/><path class="e" d="M27.31,48.52s.03-.02,.05-.04c0-.07-.02-.16-.05-.12,.08,.06-.05,.08,0,.16Z"/><path class="e" d="M27.31,47.55c0,.06,0,.15,.02,.06,0-.18-.07-.14-.12-.23-.04,.15,.06,.29,.09,.17Z"/><path class="e" d="M27.77,46.1c-.05,0-.05,.16-.03,.19,0-.04,0-.15,.03-.19Z"/><path class="e" d="M27.32,46.06v.06l.07,.06s-.05-.07-.07-.12Z"/><polygon class="e" points="28.35 45.59 28.49 45.54 28.28 45.55 28.35 45.59"/><path class="e" d="M28.56,45.6h.18l-.06-.02c-.09-.02-.06,.02-.12,.02Z"/><path class="e" d="M29.12,45.59s-.04,0-.05-.01l-.17,.03,.22-.02Z"/><path class="e" d="M32.04,45.93c-.04,.05,.13,.02,.18,.03,.01-.01-.1-.08-.18-.03Z"/></g><g><path class="e" d="M30.69,29.07l-.13,.02c.05,0,.1,0,.13-.02Z"/><path class="e" d="M36.01,25.84l-.02-.05v.03l.02,.02Z"/><path class="e" d="M36,25.82l-.05-.08c.05,.13,.06,.12,.05,.08Z"/><path class="e" d="M29.78,29.28c-.09,0-.18,.02-.27,.04l.27-.04Z"/><path class="e" d="M30.77,29.4s.03,.01,.06,.02c-.02,0-.04-.01-.06-.02Z"/><path class="e" d="M29,23.89v.04s0-.03,0-.04Z"/><path class="e" d="M29.13,23.2l.04-.15h0s-.03,.11-.04,.15Z"/><path class="e" d="M29.02,23.46l.03-.14-.03,.14Z"/><path class="e" d="M29.83,18.9l-.02-.03s.02,.03,.02,.03Z"/><path class="e" d="M29,24.05s0-.08,0-.12c0,.06-.03,.16,0,.12Z"/><path class="e" d="M30.72,29.06h-.02s.04,0,.02,0Z"/><path class="e" d="M29.12,29.27h.01c.06,0,.04,0-.01,0Z"/><path class="e" d="M34.95,22.19l-.09-.27c.05,.21,.07,.28,.09,.27Z"/><path class="e" d="M28.27,26.34c-.12,.07,.09-.35,0-.35-.03,.19-.05,.33-.12,.4,0-.16,.11-.38,.05-.47l-.05,.28c-.09,.17-.08-.09-.12,.07,.04,.26-.26,.78-.31,1.03l.02-.09-.16,.38h0v.02c-.08,.14-.2,.42-.28,.75,0,.05-.02,.18-.06,.34l-.19,.7c.24,0,.43-.01,.5-.03-.16,.01-.31,.02-.47,0l.05-.13,.08-.02-.02,.08c.22,.01-.09,.06,.28,.02,0-.05-.11-.05-.26-.04,.02-.12,.05-.3,.09-.43,0,.1-.01,.21-.04,.33,.13-.44,.27-.83,.26-1.16,.05-.12,.08-.05,.06,.05,.03-.33,.12-.21,.14-.49,.06,.12-.13,.66-.16,.94-.05,.11-.1,.23-.13,.36-.03,.1-.05,.2-.07,.29,.18-.01,.27-.03,.5-.03,.02,.07-.31,.12-.12,.16,.45,.04,.45-.04,.71-.07,.32,.02,.03,.11,.55,.12l-.3,.04c.29,.09,.28-.04,.51-.02-.07-.02-.07-.05-.33-.05-.03-.03,.17-.05,.26-.05h-.06c.11-.05,.14-.1,.47-.07-.2,.06,.26,.04,.34,.07h-.08c.24,0,.48,0,.63,0h-.01c.18,0,.25-.08,.5-.06-.03,.03-.33,.1-.05,.09-.04,.04-.36,.05-.62,.03,.26,.02,.39,.08,.07,.09,.09,.05,.3-.02,.47,0-.03-.02,.02-.03,.01-.05,0,.07,.62,0,.63-.04l-.31,.04c-.02-.06,.36-.1,.24-.13,.15,.09,.83-.04,.99,.03l-.11-.05c.64,.03,1.17-.08,1.82-.1-.22,.03-.24,.13-.64,.09,.61,.02,.18,.1,.37,.15,.47,.04,.25-.09,.39-.12l-.33,.02c.42-.12,1.23,.03,1.88-.05,.05,.03-.13,.02-.22,.03,.29,.06,.29-.01,.46-.04,.3,0,.67,.04,.48,.11,.33,.02-.04-.04,.14-.07l.06,.02c.12-.03,.21-.05,.27-.08h.12c-.02-.13-.05-.39-.03-.51-.2-.65-.22-.18-.39-.65-.04-.28,.07,.04,.1,.05l-.13-.42c.12,.13,.18,.48,.26,.42-.19-.32-.16-.47-.36-.92v.03c-.12-.19-.22-.69-.31-.96,.07,.1,.16,.4,.23,.6-.06-.32-.31-1.09-.47-1.33-.04-.18-.12-.57,0-.32-.17-.63-.19-.23-.32-.77h.07c-.08-.61-.41-1.14-.49-1.72h-.08c0-.14-.06-.4-.04-.45l.11,.28c0-.26-.14-.27-.18-.57-.02,0,0,.27-.03,.27,.38,1.19,.62,2.41,1.05,3.6,0-.05,0-.11,.01-.08,.02,.14,.11,.38,.06,.35l-.02-.04c.11,.31,.1,.63,.16,.81,.09,.11,.17,.66,.22,.49v.22c.06,.06,.09,.01,.14,.14,.06,.22,.02,.23-.05,.07l.2,.76,.16,.54-.91,.02,.24-.04c-.21-.02-.78,.08-.59-.03-.43,.04-1.18-.03-1.21,.08-.29-.11-1.05-.05-1.65-.03,.1,.1-.49,.03-.66,.07-.08-.07,.5-.08,.51-.13-.62,.12-1.72-.08-1.98,.11-.07,0-.08-.02-.05-.02-.12,0-.28-.03-.4-.04-.07,.03,.19,.05-.1,.06-.23,0-.1-.06-.19-.09-.43,.04-1.12,.06-1.19,.14-.13-.02-.26-.06-.12-.08-.34,.03-.5,.03-.67,.02h-.25c-.05,0-.12,0-.22,0h0c.13,0,.12-.08,.25-.05-.06-.04-.07-.05-.13-.05v-.07l.02-.04,.04-.15c.05-.2,.1-.4,.17-.57v-.23c.07-.33,.14-.33,.1-.1,.2-.54,.24-.85,.35-1.27,.02-.02,.02,0,0,.07l.17-.61c0-.07,.03-.3-.03-.26,.02,.09,0,.22-.11,.55Z"/><path class="e" d="M28.38,25.79v0s0,0,0,0Z"/><path class="e" d="M29.34,29.4c-.06-.02-.11-.03-.16-.03,.03,.01,.07,.02,.16,.03Z"/><path class="e" d="M29.78,20c-.12,.05-.08,.38-.18,.64,.05-.26-.03-.21-.07-.18,.05,.35-.12,.38-.25,.97-.05,0,.02-.28-.02-.33-.05,.33-.16,.82-.1,.91-.14,.54-.27,.92-.34,1.25,.07-.4-.05-.09-.04-.4-.02,.42-.15,1.34-.2,1.95-.1,.05-.12,.07-.17-.02-.23,.64,.02,.21-.17,.82l.09-.28c-.05,.3,.02,.34,.05,.44l.19-.73c.05,.02-.08,.47-.1,.61,0,.23,.15-.38,.19-.28-.02-.12,.08-.4,.11-.59l.04-.02c.12-.33,.1-.54,.18-.85,.02-.03,.02-.03,.03-.02,0-.12-.02-.24,.02-.43l-.03,.14c0-.28,.12-.94-.07-.54l.22-.73c.06,.1,.14,.28,.03,.71l.02,.06c.13-.31,.18-.92,.06-.73-.1-.37,.29-1.13,.35-1.7,.06-.03,0,.28,0,.42-.04,.16-.07,.28-.11,.28-.15,.71,.2-.1-.02,.68-.13,.38,.04-.49-.12,.07l.04,.44c.09-.35,.15-.68,.21-.97,.32-1.6,.68-2.7,.68-2.7,.57-2.32,1.11-4.66,1.62-6.99,.15-.74,.21-1,.13-1.32-.06,.14-.15,.6-.17,.43,.04,.09,0,.38-.09,.76-.06,.03,.05-.36,.02-.26l-.02,.07s-.02-.12,0-.23c-.18,.41-.34,1.22-.31,1.54-.13,.34-.03-.26-.03-.44-.32,1.21-.51,2.04-.81,3.28,.09,.04,.03,.14,.05,.33l-.06,.1s.05,.14,.13-.1c-.24,.69-.08,.87-.16,1.37l-.04-.05c-.09,.4-.12,.52-.18,.87-.25,.62,.13-.57-.03-.42l-.03,.19c-.02-.12-.07-.25-.05-.47-.08,.63-.25,.88-.36,1.56-.03-.09,.08-.7,.11-.87-.06,.22-.13,.64-.18,.65l.05,.06c-.09,.4-.05-.07-.12,.05-.23,.94,.18,.18,.02,.98Z"/><path class="e" d="M27.47,29.26c-.08,0-.16,0-.23,0l.02-.07-.02,.07h.24Z"/><path class="e" d="M27.58,27.59s-.01-.03-.01-.04c0,.03,0,.05,.01,.04Z"/><path class="e" d="M27.54,27.38s.01,.08,.03,.17c.01-.13,.1-.44-.03-.17Z"/><path class="e" d="M32.32,10.42c-.03-.05-.11-.3-.11-.23l.1,.36v-.13Z"/><path class="e" d="M32.4,11.17l.05,.36,.14,.22c-.09-.38-.11-.2-.2-.58Z"/><path class="e" d="M32.58,12.18l-.04-.08c.03,.07,.04,.09,.04,.08Z"/><path class="e" d="M32.62,12.19l.1,.12-.15-.45,.03,.18s0,.12-.01,.14l.09,.16s-.05-.13-.05-.16Z"/><path class="e" d="M32.71,12.58s0-.03,.01-.04c0,0-.01,.01-.01,.04Z"/><path class="e" d="M32.8,13.51c0-.1,.08,.08,.12,.1-.06-.36-.16-.36-.2-.68,.17,.47,0-.18,0-.35-.04,.11-.04,.29,.03,.66l.05,.03c.05,.19,0,.1,.01,.24Z"/><path class="e" d="M33.36,15.36l-.13-.27c.02-.06-.09-.51-.03-.5-.05-.16-.08-.18-.13-.3,0-.13,0-.23-.08-.37,.12,.69,.06,.49,.18,1.08-.02,0-.03-.08-.05-.16l.06,.39c.08,.02,.21,.51,.17,.13Z"/><path class="e" d="M33.46,15.94c-.08-.31-.18-.46-.18-.3l.21,.64c-.05-.19-.11-.42-.03-.34Z"/><path class="e" d="M33.57,16.39c0,.13-.02,.35,.1,.54-.1-.35,.03-.21-.1-.54Z"/><path class="e" d="M34.09,18.62l-.12-.61c.05-.13,.1,.28,.19,.46-.12-.52-.1-.35-.26-.72-.03-.15-.14-.37-.2-.53,.27,.76,.09,.85,.39,1.41Z"/><polygon class="e" points="33.85 17.39 33.8 17.33 33.91 17.61 33.85 17.39"/><path class="e" d="M34.39,20.07c0,.39,.24,.68,.32,1.1-.02-.04-.02,0-.05-.09l.11,.35-.02,.02c.05-.04,.17,.32,.26,.46-.04-.37-.12-.16-.14-.49,.05,.07,.1,.11,.14,.18-.09-.21-.14-.25-.2-.34-.07-.23-.02-.17,0-.19-.11-.25-.19-.23-.28-.63-.02-.27,.12,.13-.02-.3-.03,.24-.11-.44-.21-.59-.07-.33-.07-.55-.02-.49-.07,.03-.21-.24-.29-.48l.21,.53-.03,.21c.12,.29,.17,.51,.24,.81l-.02-.04Z"/><path class="e" d="M35.01,21.59l.05,.11s-.03-.08-.05-.11Z"/><polygon class="e" points="34.28 18.95 34.33 19.07 34.33 18.97 34.28 18.95"/><path class="e" d="M35.15,21.85c-.02-.07-.05-.09-.03-.02l.07,.1-.04-.08Z"/><polygon class="e" points="35.19 22.19 35.19 22.38 35.26 22.48 35.19 22.19"/><path class="e" d="M36.78,29.3c.3,.03,.23-.03,.22-.07-.36-.01,.04,.05-.22,.07Z"/><path class="e" d="M31.93,29.38c.28,.04,.53-.02,.8-.02-.25-.03-.58-.01-.8,.02Z"/><path class="e" d="M29.88,29.57c.07-.02,.16-.03,.01-.04l.27-.1c-.4-.03-.29,.1-.28,.14Z"/><path class="e" d="M27.42,29.59c.31-.01,.36-.03,.5-.04h-.2c.1-.04,.17-.06,.31-.1-.14,.01-.27,.03-.38,.05-.16,.02-.28,.05-.24,.09Z"/><path class="e" d="M28.38,29.43h-.14s.07,.03,.14,0Z"/><path class="e" d="M28.09,29.44h.15s-.07-.02-.15,0Z"/><path class="e" d="M26.92,29.54h-.04l.26-.96-.1,.28c.04,.08-.17,.51-.18,.69h.06Z"/><path class="e" d="M27.94,25.92l.08-.05c.12-.4,.13-.94,.29-1.15-.08,.17,.02-.35-.12,.12,0,.21-.15,.8-.25,1.08Z"/><path class="e" d="M28.43,24.46c0,.07,.04-.02,.07-.07,.05-.14,.06-.3,.01-.23,.05,.14-.09,.14-.08,.31Z"/><path class="e" d="M28.92,22.6c-.03,.12-.07,.28,0,.12,.09-.35,0-.28,0-.47-.11,.28-.09,.56,0,.35Z"/><path class="e" d="M30.09,19.94c-.06,.03-.13,.31-.13,.38,.01-.09,.07-.26,.13-.38Z"/><polygon class="e" points="29.68 19.77 29.64 19.87 29.69 20 29.68 19.77"/><polygon class="e" points="30.16 17.64 30.18 17.36 30.09 17.77 30.16 17.64"/><path class="e" d="M30.28,17.24l.08-.35-.05,.12c-.06,.17,0,.12-.03,.24Z"/><path class="e" d="M30.53,16.18s-.02,.07-.04,.1l-.04,.33,.08-.42Z"/><path class="e" d="M32.16,10.6c.04,.09,.07-.24,.11-.34,0-.02-.12,.17-.11,.34Z"/></g><g><path class="e" d="M17.47,31.08l-.03-.15c0,.06,0,.11,.03,.15Z"/><path class="e" d="M17.62,43.16v0Z"/><path class="e" d="M17.63,43.19l.03,.11c-.01-.16-.02-.16-.03-.11Z"/><path class="e" d="M17.25,29.98c-.01-.12,.05-.25,.16-.27-.13,.02-.18,.16-.16,.27Z"/><path class="e" d="M17.13,31.18s0,.04-.01,.08c0-.02,.01-.05,.01-.08Z"/><path class="e" d="M20,36.56v-.05s0,.04,0,.05Z"/><path class="e" d="M20.05,37.39v.19h0s0-.13,0-.19Z"/><path class="e" d="M20.09,37.06v0Z"/><path class="e" d="M20.96,42.47h.04s-.03,0-.04,0Z"/><path class="e" d="M19.96,36.37l.03,.14c0-.08-.01-.2-.03-.14Z"/><path class="e" d="M17.48,31.11v-.03s0,.05,0,.03Z"/><path class="e" d="M17.91,29.73h-.02c-.07,0-.04,0,.02,0Z"/><path class="e" d="M17.72,47.74l.02,.35c0-.26,0-.35-.02-.35Z"/><path class="e" d="M20.07,33.48c.09-.12,0,.44,.09,.41-.02-.23-.03-.4,.01-.5,.05,.19,0,.47,.07,.56l-.03-.34c.04-.22,.1,.08,.09-.12-.11-.29,.04-.98,.03-1.3v.11l.06-.49s0,0,0,0c0,0-.01-.02-.02-.02,.05-.19,.09-.56,.08-.97-.03-.08-.03-.39-.04-.73,.02-.2-.12-.47-.33-.48-.2-.03-.28,0-.33,0,.12,0,.44-.08,.58,.2-.03,0-.05,0-.08,0-.14-.16-.19-.12-.18-.15,0,0-.02-.04-.21-.01,.03,.06,.18,.02,.33,.11,.15,.11,.14,.35,.14,.47-.03-.09-.02-.25-.1-.39,.1,.53,0,1.05,.11,1.42-.02,.15-.06,.08-.07-.03,.06,.39-.06,.28,0,.62-.09-.11-.05-.8-.1-1.14,.03-.23,.06-.58,0-.78-.05-.11-.16-.11-.3-.1l-.43,.02c-.02-.07,.36-.13,.14-.16-.54-.04-.54,.04-.85,.08-.39-.02-.04-.11-.66-.11l.37-.04c-.36-.09-.34,.04-.61,.02,.09,.02,.09,.05,.4,.04,.03,.03-.2,.05-.32,.05h.07c-.11,.05-.2,.09-.53,.09,.09-.04,.02-.06-.09-.02-.11,.06-.09,.24-.11,.29v-.11l.02,.76h-.01c.03,.2,.1,.28,.09,.59-.03-.03-.11-.4-.09-.06-.04-.05-.05-.43-.04-.74,0,.31-.08,.47-.09,.09-.05,.11,.03,.36,0,.56,.02-.04,.04,.03,.05,.01-.07,.01,0,.75,.06,.76l-.05-.37c.06-.03,.1,.44,.13,.29-.09,.18,.06,.99,0,1.19l.04-.14c-.01,.77,.1,1.41,.14,2.18-.03-.27-.13-.29-.11-.77,0,.73-.1,.22-.14,.44-.03,.57,.1,.29,.13,.47l-.03-.4c.13,.51,0,1.48,.09,2.27-.03,.06-.02-.16-.03-.27-.05,.36,.02,.34,.05,.56,0,.37-.02,.81-.1,.58-.01,.4,.04-.04,.07,.17l-.02,.08,.09,.42c-.02,.35-.05,.77-.12,.93,.03,.82,.17,.28,.21,.88-.03,.33-.06-.06-.09-.09l.02,.53c-.08-.19-.05-.61-.15-.58,.1,.44,.04,.59,.11,1.19v-.04c.08,.26,.04,.87,.06,1.21-.04-.14-.05-.52-.07-.77-.02,.39,.02,1.36,.11,1.7,0,.22-.04,.7-.08,.38,0,.78,.13,.33,.11,1l-.06-.03c-.08,.74,.11,1.46,.04,2.16l.08,.04c-.03,.15-.04,.46-.07,.52l-.03-.36c-.06,.3,.07,.35,.03,.72,.02,0,.07-.31,.1-.31-.07-1.5,.01-3-.09-4.52,0,.06-.02,.13-.03,.09,.02-.17,0-.47,.03-.42v.05c-.02-.4,.07-.76,.07-1-.06-.15,0-.82-.08-.64l.05-.26c-.04-.09-.08-.04-.1-.2,0-.27,.04-.28,.07-.07,.02-1.04-.01-2.28-.06-3.35l.05,.29c.02-.26-.09-.93,.02-.72-.05-.52,0-1.42-.11-1.46,.1-.35,.02-1.26,0-1.99-.09,.12-.04-.6-.09-.79,.07-.1,.09,.61,.14,.62-.13-.75,.05-2.07-.15-2.38,0-.09,.01-.09,.02-.06,0-.14,.03-.33,.03-.48-.04-.08-.04,.23-.06-.12,0-.27,.06-.12,.08-.23-.05-.17,.01-.18,.38-.19,.28-.02,.51-.05,.56-.08,.16,.02,.32,.06,.15,.08,.42-.03,.62-.03,.82-.02h.33c.14,.01,.28-.03,.36,.04-.17-.07,0,.05-.44,0,.07,.03,.24,.04,.31,.04,.04,0,.08,.02,.08,.11,.01,.34,.03,.76,0,1.09l.07,.27c.01,.41-.06,.43-.08,.15-.04,.69,0,1.06,0,1.59,0,.03-.02,0-.02-.08v.76c.01,.08,.05,.35,.09,.3-.04-.09-.06-.25-.04-.67Z"/><path class="e" d="M20.1,34.15v0s0,0,0,0Z"/><path class="e" d="M17.64,29.6c.08,.02,.14,.03,.19,.03-.04-.01-.09-.02-.19-.03Z"/><path class="e" d="M20.36,41.32c.08-.11-.1-.45-.1-.79,.05,.31,.11,.23,.13,.18-.17-.38-.01-.47-.04-1.19,.04-.02,.05,.33,.1,.37-.03-.4-.05-1.01-.13-1.1,0-.68,.03-1.16,.02-1.56,.03,.49,.08,.09,.14,.45-.09-.5-.2-1.6-.3-2.33,.08-.09,.09-.12,.17-.03,.06-.81-.08-.24-.05-1.01l-.02,.36c-.03-.36-.1-.39-.16-.5v.91s-.04-.57-.05-.74c-.07-.27-.05,.49-.1,.39,.05,.13,.03,.49,.05,.72l-.03,.04c-.03,.42,.05,.66,.04,1.04,0,.03-.02,.04-.02,.03,.03,.13,.08,.27,.09,.5v-.18c.07,.33,.12,1.13,.2,.6l-.02,.92c-.08-.1-.21-.29-.21-.82l-.03-.06c-.05,.4,.06,1.12,.13,.86,.2,.4-.01,1.41,.11,2.09-.05,.05-.09-.33-.13-.49,0-.2,0-.35,.04-.37-.03-.87-.17,.18-.15-.8,.03-.48,.08,.59,.09-.12l-.15-.51c0,.44,.03,.84,.04,1.19,.02,.97,.12,1.87,.3,2.45,.16,.59,.32,.92,.32,.92,.66,1.36,1.89,2.42,3.32,2.87,.7,.24,1.48,.34,2.2,.3,.32,0,.85-.07,.83,.04,.03,.01,.02,.25,.02,.42v.54c.02,.91,.01,1.23,.16,1.59,.03-.19,.02-.74,.07-.55-.05-.1-.08-.44-.08-.91,.05-.05,.02,.43,.04,.31v-.09s.05,.13,.05,.28c.04-.26,.06-.64,.05-1,0-.18-.01-.35-.03-.51-.01-.18-.13-.3-.24-.3-.2-.06-.14-.09,.04-.05,.22,.04,.25,.41,.26,.49,.03-.16-.02-.53-.29-.58-.25-.06-.39-.02-.56-.03-.33,0-.65,.01-.96,0-.61-.03-1.23-.18-1.91-.47-.06,.08-.16,0-.38-.05l-.1-.09c.05,.04-.17,0,.09,.16-.73-.49-.96-.45-1.46-.84h.07c-.37-.36-.46-.48-.74-.83-.18-.37-.08-.22,.06-.01,.16,.2,.36,.45,.34,.32l-.16-.17c.12,.08,.27,.15,.46,.3-.55-.52-.65-.86-1.03-1.58,.07,.08,.44,.71,.57,.86-.15-.22-.4-.65-.37-.69l-.08-.02c-.19-.45,.08,.03,.06-.13-.39-1.06-.29-.05-.58-.99Z"/><path class="e" d="M19.89,29.73c.14,0,.27,.02,.34,.12-.06-.12-.22-.13-.34-.12Z"/><path class="e" d="M20.4,31.81s.02,.03,.02,.04c0-.04-.01-.06-.02-.04Z"/><path class="e" d="M20.49,32.04c-.03,.06-.03-.09-.07-.19,.02,.15,.02,.54,.07,.19Z"/><path class="e" d="M26.89,49.18c.07-.02,.38-.04,.3-.06l-.45,.02,.15,.03Z"/><path class="e" d="M25.99,49.11l-.44-.03-.29,.1c.47-.02,.26-.07,.73-.08Z"/><path class="e" d="M24.76,49.09l.1-.03c-.09,.01-.11,.02-.1,.03Z"/><path class="e" d="M24.74,49.13l-.17,.07,.57-.07h-.22s-.15-.03-.17-.04l-.21,.06c.05,0,.16-.02,.2-.02Z"/><path class="e" d="M24.26,49.15l.04,.02s-.01-.01-.04-.02Z"/><path class="e" d="M23.17,49.26c.11-.03-.08,.11-.08,.15,.38-.18,.38-.27,.76-.31-.56,.16,.21-.01,.42,.06-.12-.05-.35-.13-.78-.02l-.03,.06c-.22,.08-.11,.02-.27,.07Z"/><path class="e" d="M22.12,51.17c-.02-.12-.03-.23-.03-.35,.02-.06,.2-.58,.26-.52,.07-.17,.07-.21,.14-.35,.11-.1,.2-.16,.3-.32-.31,.26-.38,.4-.46,.5-.07,.11-.14,.21-.24,.56,0-.02,0-.11,.04-.19-.06,.15-.1,.3-.13,.46,.06,.05,.07,.67,.12,.21Z"/><path class="e" d="M22.07,51.88c0-.39-.06-.61-.1-.42l.02,.41c.03,.12-.01,.3-.17,.29,.14,.02,.2-.14,.19-.22,0-.09,.02-.13,.05-.06Z"/><path class="e" d="M21.68,52.19c-.16-.05-.39-.16-.66-.14,.44,.06,.21,.12,.66,.14Z"/><path class="e" d="M19.01,51.49c.22,.11,.46,.21,.69,.29,.11,.12-.36-.08-.58-.13,.6,.24,.42,.14,.9,.22,.18,.05,.47,.07,.68,.08-.97-.14-.95-.35-1.69-.47Z"/><polygon class="e" points="20.42 52.01 20.52 51.99 20.16 51.94 20.42 52.01"/><path class="e" d="M17.8,50.35c-.03-.41-.12-.82-.11-1.34,0,.05,.01,.02,.03,.12l-.02-.44,.02-.02c-.06,.03-.09-.42-.14-.62-.05,.45,.08,.22,.02,.62-.03-.09-.07-.16-.09-.25,.03,.27,.07,.33,.11,.45,.01,.29-.02,.2-.05,.23,.04,.32,.12,.33,.12,.82-.02,.31-.12-.18-.01,.35,.02-.14,.03,0,.09,.18,.06,.18,.2,.4,.3,.44,.27,.28,.51,.43,.41,.42,.03-.07,.36,.05,.65,.14-.22-.06-.43-.14-.63-.24-.05-.06-.1-.12-.15-.19-.31-.17-.48-.4-.57-.72l.02,.05Z"/><path class="e" d="M17.51,48.42l-.02-.15c0,.06,0,.11,.02,.15Z"/><polygon class="e" points="18.56 51.39 18.41 51.33 18.5 51.4 18.56 51.39"/><path class="e" d="M17.44,48.08c0,.09,.03,.12,.03,.03l-.04-.14v.11Z"/><polygon class="e" points="17.49 47.67 17.53 47.45 17.49 47.31 17.49 47.67"/><path class="e" d="M17.37,38.41c-.02,.3,.03,.27,.08,.32,0-.46-.05,0-.08-.32Z"/><path class="e" d="M17.19,32.58c-.03,.33,.03,.63,.04,.96,.02-.3,0-.69-.04-.96Z"/><path class="e" d="M16.95,30.11c.02,.09,.03,.2,.04,.02l.11,.32c.03-.48-.1-.36-.15-.34Z"/><path class="e" d="M19.79,29.41l-.45,.04h.23c-.11,.04-.2,.06-.37,.1,.34-.02,.66-.06,.59-.14Z"/><path class="e" d="M18.8,29.57h.17c-.05-.02-.08-.03-.17,0Z"/><path class="e" d="M19.15,29.56h-.18s.09,.02,.18,0Z"/><path class="e" d="M20.29,29.55c.21,.1,.27,.45,.26,.57v.4l.03-.3s-.01-.1-.03-.28c-.01-.19-.14-.37-.26-.39Z"/><path class="e" d="M20.49,33.86l-.06,.08c-.01,.5,.12,1.13,.02,1.43,.04-.22,.07,.42,.09-.18-.06-.24-.06-.98-.05-1.33Z"/><path class="e" d="M20.4,35.71c-.02-.08-.03,.04-.05,.11,0,.18,.02,.37,.05,.28-.08-.15,.05-.19,0-.38Z"/><path class="e" d="M20.4,38.03c0-.15,0-.35-.02-.14,0,.44,.07,.33,.12,.55,.04-.36-.06-.68-.09-.41Z"/><path class="e" d="M20.12,41.55c.04-.06-.05-.42-.07-.5,.02,.12,.06,.34,.07,.5Z"/><polygon class="e" points="20.56 41.52 20.55 41.4 20.44 41.27 20.56 41.52"/><polygon class="e" points="21.78 43.75 22.03 43.95 21.7 43.6 21.78 43.75"/><path class="e" d="M22.11,44.1c.11,.09,.21,.2,.33,.28-.03-.04-.07-.07-.1-.11-.14-.15-.11-.07-.22-.17Z"/><path class="e" d="M23.14,44.85c-.05-.02-.07-.05-.1-.07l-.35-.18,.44,.25Z"/><path class="e" d="M27.02,48.56c-.05-.1-.02,.3-.03,.42,.01,.02,.08-.24,.03-.42Z"/></g><g><path class="e" d="M44.66,29.92l.15-.02c-.06,0-.12,0-.15,.02Z"/><path class="e" d="M43.78,41.06s0,.04,0,.06v-.06Z"/><path class="e" d="M43.79,41.09s0,.08,.01,.12c.02-.17,0-.16-.01-.12Z"/><path class="e" d="M45.77,29.72c.11,0,.22-.02,.32-.04l-.32,.04Z"/><path class="e" d="M44.57,29.59s-.04-.01-.08-.02c.02,0,.05,.01,.08,.02Z"/><path class="e" d="M46.68,38.39v-.05s0,.04,0,.05Z"/><path class="e" d="M46.72,39.23v.19h0s0-.14,0-.19Z"/><path class="e" d="M46.77,38.89v0Z"/><path class="e" d="M47.05,44.47l.03,.03s-.02-.03-.03-.03Z"/><path class="e" d="M46.64,38.2l.03,.14c0-.08,0-.2-.03-.14Z"/><path class="e" d="M44.63,29.94h.03s-.05,0-.03,0Z"/><path class="e" d="M46.57,29.73h-.02c-.07,0-.04,0,.02,0Z"/><path class="e" d="M41.34,44.9l-.3,.2c.24-.13,.3-.19,.3-.2Z"/><path class="e" d="M46.8,35.31c.1-.12,0,.44,.08,.41-.02-.23-.03-.4,.02-.51,.05,.19-.01,.47,.06,.56l-.02-.34c.04-.22,.1,.08,.1-.12-.1-.29,.06-.98,.05-1.3v.11l.07-.49s0,0,0,0c0,0-.01-.02-.02-.02,.06-.19,.1-.56,.1-.97-.06-.16,0-1.29-.04-1.48,.01,.17,.01,.32-.01,.53l-.07-.04c0-.38,.07-.02,.03-.39-.1,.06-.01,.53-.03,.8-.02-.1-.04-.23-.04-.4-.01,.54-.06,1.05,.03,1.43-.02,.15-.06,.08-.07-.03,.05,.39-.06,.28-.02,.62-.09-.12-.03-.81-.08-1.14,.08-.5,.03-1.15,.02-1.7,.07-.02,.12,.37,.16,.15,.06-.54-.03-.55-.06-.86,.01-.19,.02-.2,.04-.26,.01-.03,0-.23-.38-.22,.12-.02,.33-.02,.43,.12-.12-.23-.33-.19-.4-.18-.08,.02-.14,.05-.28,.04,.1,.03,.07,.04,.42,.06,.02,.03-.23,.03-.34,.04h.07c-.13,.05-.17,.1-.56,.07,.24-.06-.31-.04-.41-.07h-.64c-.22,.02-.3,.09-.61,.07,.03-.03,.41-.1,.06-.09,.05-.04,.43-.05,.74-.03-.31-.02-.47-.08-.08-.09-.1-.05-.36,.02-.56,0,.04,.02-.03,.03-.02,.05,0-.04-.19-.04-.38-.02-.21-.02-.44,.14-.4,.17,.1-.11,.27-.13,.39-.14,.01,.03-.1,.05-.2,.09-.09,.04-.14,.1-.07,.08-.13-.03-.21,.25-.17,.49,.01,.25,.03,.5-.01,.6l.05-.14c-.03,.77,.08,1.41,.1,2.19-.03-.27-.13-.29-.09-.77-.02,.73-.1,.22-.15,.44-.04,.57,.09,.3,.12,.47l-.02-.4c.12,.51-.02,1.48,.05,2.27-.03,.06-.02-.16-.03-.27-.06,.35,.01,.34,.04,.56,0,.37-.04,.81-.11,.58-.02,.4,.04-.04,.07,.17l-.02,.08,.08,.43c-.02,.35-.06,.77-.13,.93,.01,.82,.16,.28,.19,.88-.04,.33-.06-.06-.08-.1v.53c-.07-.19-.03-.61-.13-.58,.1,.44,.03,.6,.09,1.19v-.04c.08,.26,.03,.87,0,1.22-.03-.15,0-.53-.02-.78-.04,.39-.05,1.37-.07,1.71-.06,.22-.24,.67-.18,.35-.27,.74,.02,.36-.29,.98l-.04-.05c-.41,.61-.74,1.3-1.36,1.69v.09c-.12,.07-.39,.25-.46,.25,.1-.07,.19-.16,.28-.23-.28,.12-.25,.26-.6,.42,.02,.02,.31-.1,.32-.08,1.28-.84,2.26-2.22,2.43-3.78-.02,.06-.05,.12-.05,.08,.06-.16,.04-.48,.08-.42v.06c0-.4,.15-.78,.13-1.01-.05-.16,.02-.82-.07-.65l.06-.26c-.03-.09-.08-.04-.1-.21,0-.27,.04-.28,.07-.06,.03-1.04,.02-2.28,0-3.35l.04,.29c.02-.26-.08-.94,.03-.72-.04-.52,.03-1.43-.08-1.46,.11-.35,.05-1.27,.03-1.99-.1,.12-.03-.6-.07-.79,.07-.1,.08,.61,.13,.62-.03-.19-.04-.41-.04-.64,0-.21,0-.56,.04-.58,.03-.03,.04-.04,.1-.04h.27c.18-.02,.33-.04,.41-.09,.09,0,.09,.02,.06,.02,.14,0,.34,.03,.48,.04,.09-.03-.23-.05,.12-.06,.27,0,.12,.06,.23,.09l.89-.06c.33-.03,.38-.03,.45,0,.04,.12-.03,.2-.04,.12,.06,.73-.02,.77,0,1.59,0-.29-.08-.15-.04-.57-.12,.33,0,1.29-.08,1.95l.06,.27c0,.41-.06,.43-.08,.14-.06,.69-.02,1.06-.03,1.59,0,.03-.02,0-.02-.08l-.02,.77c.02,.08,.05,.35,.09,.3-.04-.1-.06-.26-.02-.67Z"/><path class="e" d="M46.83,35.98v0s0,0,0,0Z"/><path class="e" d="M46.3,29.6c.08,.02,.14,.03,.19,.03-.04-.01-.09-.02-.19-.03Z"/><path class="e" d="M46.85,43.17c.11-.1,0-.46,.02-.8,.01,.32,.07,.24,.11,.2-.13-.39,.04-.48,.02-1.21,.05-.02,.05,.34,.1,.38-.03-.4-.04-1.01-.12-1.1,0-.68,.04-1.16,.03-1.57,.03,.49,.08,.09,.14,.45-.08-.5-.18-1.61-.28-2.34,.09-.09,.1-.12,.17-.03,.07-.81-.07-.24-.03-1.01l-.02,.36c-.02-.36-.1-.39-.15-.5v.91c-.06,0-.04-.57-.06-.74-.06-.27-.06,.49-.11,.39,.04,.13,.02,.49,.04,.72l-.03,.04c-.04,.42,.03,.66,.03,1.04,0,.03-.02,.04-.02,.03,.03,.13,.07,.27,.08,.51v-.18c.07,.33,.11,1.14,.19,.61l-.03,.92c-.08-.1-.2-.29-.21-.82l-.03-.06c-.05,.4,.05,1.13,.12,.87,.19,.4,0,1.41,.06,2.09-.05,.05-.07-.33-.1-.49,0-.2,0-.35,.04-.37-.02-.87-.17,.18-.14-.8,.03-.48,.08,.59,.09-.12l-.14-.51c0,.44,.02,.84,.03,1.19,.07,1.97-.04,3.35-.04,3.35l-.05,4.33-.05,1.07c0,.37-.1,.59-.34,.82-.5,.42-1.18,.68-1.86,.85-.86,.23-1.2,.24-1.52,.45,.19,0,.73-.1,.56-.02,.09-.07,.42-.15,.88-.25,.06,.04-.42,.12-.29,.1l.09-.02s-.12,.07-.26,.1c.53,0,1.52-.31,1.8-.59,.41-.14-.23,.21-.43,.32,.37-.12,.7-.27,.99-.46,.29-.18,.57-.44,.69-.79,.11-.37,.07-.66,.1-1.01,.02-.34,.04-.69,.04-1.07-.09-.03-.06-.16-.12-.37l.04-.13c-.02,.07-.08-.15-.1,.15,.09-.88-.11-1.05-.14-1.65l.05,.04c0-.5,0-.65-.02-1.08,.11-.8,0,.7,.13,.48l-.02-.23c.04,.13,.12,.28,.15,.53-.07-.77,.05-1.1,0-1.93,.05,.1,.08,.85,.09,1.05,.01-.28-.02-.79,.03-.81l-.07-.06c0-.5,.06,.07,.11-.09,0-1.17-.22-.16-.24-1.15Z"/><path class="e" d="M47.09,31.3c0,.14,0,.26,0,.37v-.37Z"/><path class="e" d="M47.17,33.64s.02,.03,.02,.04c0-.04-.01-.06-.02-.04Z"/><path class="e" d="M47.26,33.87c-.03,.06-.03-.09-.07-.19,.02,.15,.01,.54,.07,.19Z"/><path class="e" d="M42.14,51.89c.02,.07,.04,.38,.06,.31l-.02-.46-.03,.15Z"/><path class="e" d="M42.21,51c0-.14-.02-.28-.05-.41-.05-.08-.12-.15-.18-.22,.15,.4,.16,.2,.23,.64Z"/><path class="e" d="M41.83,49.9l.08,.06c-.06-.07-.08-.08-.08-.06Z"/><path class="e" d="M41.79,49.91c-.05-.03-.1-.06-.15-.08,.13,.12,.25,.25,.35,.41-.02-.07-.06-.12-.09-.19,.02-.02-.05-.13-.06-.15-.06-.04-.11-.09-.17-.12,.04,.03,.11,.1,.13,.14Z"/><path class="e" d="M41.46,49.58s.01,.03,.02,.04c0,0,0-.02-.02-.04Z"/><path class="e" d="M40.53,49.03c.11,.04-.13,.04-.16,.07,.41,.1,.47,.02,.8,.21-.55-.2,.19,.11,.29,.28-.04-.11-.19-.3-.61-.47l-.06,.02c-.23-.06-.1-.05-.26-.11Z"/><path class="e" d="M38.2,49.08l.35-.06c.06,.03,.62,.03,.6,.1,.2,0,.23-.04,.39-.05,.15,.03,.26,.06,.46,.01-.84-.05-.59-.06-1.32-.08,.02-.01,.11-.01,.2,0l-.48-.03c-.04,.08-.66,.08-.2,.13Z"/><path class="e" d="M37.49,49.03c.39,0,.59-.06,.41-.1l-.41,.02h-.19c-.07,0-.15,.02-.13-.07,0,.02-.01,.07,.01,.08h.09l.15,.02c.08,.01,.13,.03,.07,.05Z"/><path class="e" d="M37.12,48.73c.03-.17,.1-.41,.04-.67,.01,.44-.08,.22-.04,.67Z"/><path class="e" d="M37.17,45.96c-.03,.25-.03,.5-.05,.75-.08,.14-.03-.36-.07-.59-.01,.64,.01,.43,.07,.92,0,.18,.04,.47,.06,.68-.07-.97,.12-1.03-.02-1.76Z"/><polygon class="e" points="37.09 47.47 37.12 47.56 37.1 47.2 37.09 47.47"/><path class="e" d="M38.81,45.77c.47,.05,.87-.17,1.37-.32-.05,.03,0,.02-.11,.07,.14-.05,.28-.11,.41-.18h.03s.35-.25,.49-.39c-.42,.17-.16,.17-.54,.29,.07-.07,.12-.13,.19-.19-.22,.15-.27,.2-.37,.28-.27,.11-.2,.05-.23,.03-.29,.13-.28,.23-.77,.3-.32,0,.17-.1-.36,0,.28,.07-.55,.04-.76,.09-.41-.02-.67-.09-.58-.12,0,.04-.09,.06-.19,.11-.11,.05-.15,.19-.13,.32-.05-.21,.11-.35,.35-.33l.23,.09c.38-.03,.66-.03,1.03-.06h-.05Z"/><path class="e" d="M40.64,45.05l.12-.08c-.05,.03-.09,.05-.12,.08Z"/><path class="e" d="M37.45,45.61c.06-.01,.12-.02,.17-.02l-.12-.03-.05,.05Z"/><path class="e" d="M40.91,44.84c-.08,.04-.09,.08-.01,.04l.1-.1-.09,.06Z"/><path class="e" d="M41.28,44.67c.07-.03,.14-.06,.21-.09l.09-.11-.3,.2Z"/><path class="e" d="M43.68,36.27c-.03,.3,.03,.27,.07,.32,.01-.46-.05-.01-.07-.32Z"/><path class="e" d="M43.61,30.43c-.04,.33,.02,.63,.02,.96,.03-.3,.01-.69-.02-.96Z"/><path class="e" d="M45.65,29.42c-.08,.02-.2,.03-.02,.04l-.32,.1c.48,.04,.35-.09,.34-.14Z"/><path class="e" d="M47.41,31.22l-.03-.46v.24c-.05-.12-.06-.2-.09-.37,.02,.34,.05,.66,.13,.6Z"/><path class="e" d="M47.28,30.21v.17s.03-.08,0-.17Z"/><path class="e" d="M47.28,30.56v-.18s-.02,.09,0,.18Z"/><path class="e" d="M47.36,31.56v.79l.02-.3c-.06-.07,.04-.37-.02-.49Z"/><path class="e" d="M47.22,35.69l-.06,.08c-.02,.5,.1,1.14,0,1.43,.04-.22,.06,.42,.09-.18-.05-.25-.04-.98-.02-1.34Z"/><path class="e" d="M47.09,37.55c-.02-.08-.03,.04-.05,.1-.01,.18,.02,.37,.04,.28-.08-.15,.05-.19,0-.38Z"/><path class="e" d="M47.07,39.87c0-.15,0-.35-.02-.14,0,.44,.07,.33,.11,.55,.04-.37-.05-.69-.09-.41Z"/><path class="e" d="M46.56,43.32c.05-.05,.05-.4,.04-.48,0,.11-.01,.33-.04,.48Z"/><polygon class="e" points="47.01 43.41 47.02 43.29 46.94 43.14 47.01 43.41"/><polygon class="e" points="47.01 46.04 47.05 46.38 47.05 45.88 47.01 46.04"/><path class="e" d="M46.98,46.55v.44l.02-.15c.02-.21-.02-.14-.02-.29Z"/><path class="e" d="M46.97,47.87c0-.06,0-.09,.01-.12l-.03-.4v.52Z"/><path class="e" d="M42.73,51.95c.09-.07-.3,.03-.42,.03-.02,.02,.25,.05,.42-.03Z"/></g><g><path class="e" d="M41.89,51.6l.02,.13c0-.05,0-.1-.02-.13Z"/><path class="e" d="M33.53,49.36h0Z"/><path class="e" d="M33.51,49.37l-.09,.03c.14-.01,.13-.02,.09-.03Z"/><path class="e" d="M42.1,52.52c0,.09,.02,.18,.04,.27l-.04-.27Z"/><path class="e" d="M42.22,51.52s.01-.03,.02-.06c0,.02-.01,.04-.02,.06Z"/><path class="e" d="M36.33,54.73h.04s-.03,0-.04,0Z"/><path class="e" d="M35.63,54.78h-.17s.12,0,.17,0Z"/><path class="e" d="M35.91,54.82h0Z"/><path class="e" d="M31.28,55.18l-.02,.03s.03-.02,.02-.03Z"/><path class="e" d="M36.48,54.69s-.08,.02-.12,.03c.06,0,.17-.01,.12-.03Z"/><path class="e" d="M41.87,51.58v.02s0-.04,0-.02Z"/><path class="e" d="M42.09,53.18h0c0-.07,0-.05,0,0Z"/><path class="e" d="M29.72,49.38h-.29c.22,.02,.29,.01,.29,0Z"/><path class="e" d="M38.89,54.8c.1,.09-.37,0-.34,.09,.19-.02,.33-.03,.42,.01-.16,.05-.39,0-.47,.07l.29-.03c.18,.04-.07,.1,.1,.09,.24-.11,.82,.04,1.08,.03h-.1l.41,.06h0s.01,0,.02-.01c.16,.05,.47,.09,.81,.08,.06-.03,.33-.03,.6-.04,.14-.03,.43,.05,.47-.08,.03-.16,.03-.28,.01-.34-.01,.16,.05,.47-.25,.38,0-.02,0-.05,0-.07,.2,.02,.16-.03,.18-.02,0,0,.02,0,.02-.19-.02,0-.04,.04-.05,.08-.01,.05,0,.13-.1,.11-.14,.01-.31,.03-.41,.03,.08-.02,.2-.04,.33-.05-.45,0-.88-.04-1.19,.06-.13-.02-.07-.06,.03-.07-.33,.06-.24-.06-.51,0,.1-.09,.67-.05,.95-.1,.19,.04,.48,.04,.66,.03,.04,0,.1,0,.12-.02,0-.05,.01-.09,0-.13l-.02-.32c.07-.02,.12,.31,.16,.12,.04-.45-.04-.45-.08-.71,.02-.32,.11-.03,.11-.55l.04,.31c.09-.3-.04-.28-.02-.51-.02,.07-.05,.07-.05,.33-.03,.03-.05-.17-.05-.26v.06c-.05-.11-.1-.14-.08-.47,.06,.2,.04-.26,.07-.34v.08c0-.24,0-.48-.01-.63h.01c-.02-.17-.09-.23-.08-.49,.03,.03,.1,.34,.09,.05,.04,.04,.05,.36,.03,.62,.02-.26,.08-.39,.09-.07,.05-.09-.02-.3,0-.47-.02,.03-.03-.02-.05-.01,.07,0,.01-.62-.06-.64,.03,.11,.04,.22,.05,.32-.05,.02-.1-.36-.13-.24,.12-.18-.28-.76-.33-.9,0,.04,.02,.08,.02,.12-.32-.56-.89-.72-1.49-.76,.21,0,.26-.11,.62,.05-.56-.19-.14-.15-.31-.24-.48-.11-.26,.06-.41,.07,.11,0,.22,0,.33,.02-.42,.03-1.22-.06-1.88,0-.05-.03,.13-.02,.22-.03-.3-.06-.29,.01-.46,.04-.31,0-.67-.04-.48-.11-.34-.02,.04,.04-.14,.07l-.06-.02-.35,.08c-.29-.02-.64-.06-.77-.13-.68,.01-.24,.16-.73,.19-.28-.04,.05-.06,.08-.08h-.44c.16-.07,.51-.03,.48-.13-.37,.1-.5,.03-.99,.09h.03c-.22,.07-.72,.03-1.01,.04,.12-.04,.43-.04,.64-.06-.32-.03-1.14,0-1.41,.08-.18-.01-.58-.05-.31-.08-.65-.01-.27,.12-.84,.1l.02-.06c-.62-.09-1.22,.08-1.8,0l-.04,.08c-.13-.03-.39-.05-.43-.08l.3-.03c-.25-.07-.3,.06-.6,.02,0,.02,.26,.08,.26,.1,1.25-.04,2.5,.07,3.76-.01-.05,0-.1-.02-.07-.04,.14,.02,.39,0,.35,.04h-.05c.33-.01,.63,.08,.83,.08,.13-.05,.68,.02,.54-.07l.22,.06c.07-.03,.04-.08,.17-.1,.23,0,.23,.04,.05,.07,.87,.04,1.9,.03,2.79,0l-.24,.04c.21,.02,.78-.08,.6,.03,.43-.04,1.19,.03,1.22-.08,.27,.1,1,.1,1.41,.48,0-.15,.34,.3,.43,.43-.01,.09-.32-.35-.38-.3,.23,.15,.43,.53,.48,.85,.02,.3,0,.7,.1,.82,0,.07-.02,.08-.02,.05,0,.12-.03,.28-.04,.4,.03,.07,.05-.19,.06,.1,0,.23-.06,.1-.08,.19,.04,.43,.06,1.12,.14,1.2-.02,.13-.06,.26-.08,.12,.03,.35,.03,.51,.02,.68v.27s.03,.17-.06,.18c.08,.01,.02-.07,.02-.08-.01-.05-.02-.02,0-.15-.06,.13-.01,.14-.16,.15-.3,.01-.64,.03-.92,0l-.22,.07c-.34,.01-.36-.05-.12-.08-.58-.04-.88,0-1.32,0-.03,0,0-.02,.07-.02h-.64c-.06,.02-.29,.05-.25,.09,.08-.04,.21-.06,.56-.04Z"/><path class="e" d="M38.33,54.84h0s0,0,0,0Z"/><path class="e" d="M42.22,52.95c-.02,.06-.03,.11-.03,.16,.01-.03,.02-.07,.03-.16Z"/><path class="e" d="M32.36,54.96c.08,.11,.39-.02,.66,.01-.26,.02-.2,.08-.16,.11,.33-.14,.4,.03,1,0,.01,.04-.28,.05-.31,.1,.33-.03,.84-.05,.91-.13,.56,0,.96,.03,1.3,.01-.41,.03-.08,.08-.37,.14,.41-.09,1.34-.2,1.94-.31,.07,.08,.1,.09,.03,.17,.68,.06,.2-.08,.84-.05h-.3c.3-.04,.32-.12,.42-.18h-.75s.48-.04,.62-.05c.22-.07-.41-.05-.32-.1-.11,.05-.41,.03-.6,.05l-.03-.03c-.35-.03-.55,.05-.87,.04-.03,0-.03-.02-.03-.02-.11,.04-.23,.08-.42,.09h.15c-.27,.07-.94,.12-.5,.2l-.77-.02c.09-.08,.24-.21,.68-.21l.05-.03c-.33-.05-.94,.06-.72,.13-.33,.2-1.17,0-1.74,.09-.04-.05,.27-.07,.41-.11,.17,0,.29,0,.3,.04,.73-.03-.15-.17,.67-.15,.4,.03-.49,.09,.1,.09l.42-.15c-.37,0-.7,.03-.99,.05-1.63,.1-2.79,.01-2.79,.01l-7.2,.05c-.75,.02-1.02,.01-1.32,.16,.16,.03,.62,.02,.46,.07,.08-.05,.37-.08,.76-.08,.04,.05-.36,.03-.26,.04h.07s-.11,.05-.23,.05c.44,.08,1.27,.06,1.58-.04,.36,.05-.24,.08-.43,.13,1.26,.04,2.11,.03,3.39,.04,.02-.09,.13-.06,.31-.12l.11,.03c-.05-.02,.12-.08-.13-.1,.73,.07,.87-.13,1.37-.17l-.03,.05c.41,0,.54,0,.9-.04,.66,.09-.58,.01-.4,.13l.19-.02c-.11,.05-.23,.13-.44,.16,.64-.08,.91,.03,1.61-.03-.08,.05-.7,.1-.88,.1,.23,0,.65-.03,.67,.02l.05-.07c.41,0-.05,.06,.08,.11,.98,0,.13-.22,.95-.26Z"/><path class="e" d="M42.08,54.83l-.03,.16s-.09,0-.13,.02c.05,0,.12,.02,.14-.02,0-.05,.02-.1,.02-.16Z"/><path class="e" d="M40.29,55.13s-.02,.02-.04,.02c.03,0,.05-.01,.04-.02Z"/><path class="e" d="M40.09,55.23s.08-.03,.16-.07c-.13,.02-.45,.02-.16,.07Z"/><path class="e" d="M22.07,54.75c.02,.06,.04,.31,.06,.25l-.02-.38-.03,.12Z"/><path class="e" d="M22.14,54l.03-.37-.09-.24c0,.39,.07,.22,.07,.61Z"/><path class="e" d="M22.19,52.97l.02,.08c0-.08-.02-.09-.02-.08Z"/><path class="e" d="M22.15,52.96l-.07-.14,.05,.48v-.18s.04-.12,.06-.14l-.05-.18s.02,.13,0,.16Z"/><path class="e" d="M22.15,52.55s-.01,.03-.02,.03c0,0,.01,0,.02-.03Z"/><path class="e" d="M22.27,51.62c-.02,.1-.06-.1-.09-.12-.02,.37,.08,.38,.04,.7-.05-.49-.04,.18-.08,.34,.06-.1,.1-.28,.12-.66l-.04-.04c0-.2,.02-.1,.04-.24Z"/><path class="e" d="M22.77,49.76c-.06,.09-.11,.18-.15,.27-.07,.02-.3,.44-.33,.41-.06,.17-.03,.21-.05,.34-.06,.12-.1,.22-.06,.39,.04-.37,.12-.48,.15-.58,.05-.1,.08-.2,.25-.45,0,.02-.04,.08-.08,.15,.07-.11,.16-.21,.25-.31-.05-.08,.34-.45,.02-.21Z"/><path class="e" d="M23.28,49.44c-.29,.16-.37,.34-.23,.27,.17-.14,.35-.27,.56-.35-.19,.06-.4,.19-.34,.08Z"/><path class="e" d="M23.73,49.27c.14,0,.34,.03,.56-.04-.36,.04-.21-.08-.56,.04Z"/><path class="e" d="M26.03,49.25l-.63-.04c-.12-.08,.3-.03,.49-.06-.53-.02-.36,0-.77,.06-.15,0-.39,.04-.57,.06,.81-.07,.85,.14,1.47-.02Z"/><polygon class="e" points="24.78 49.16 24.71 49.2 25.01 49.17 24.78 49.16"/><path class="e" d="M27.51,49.34c.38,.1,.72-.06,1.15-.01-.05,0-.01,.01-.1,.03h.38s.35-.07,.52-.11c-.37-.06-.19,.07-.51,0,.08-.03,.14-.07,.21-.09-.22,.03-.28,.06-.38,.1-.24,0-.17-.03-.19-.05-.27,.03-.27,.12-.68,.1-.26-.05,.16-.08-.3-.06,.22,.09-.46-.01-.63,.04-.34-.02-.56-.08-.48-.11,0,.07-.29,.13-.54,.15l.57-.06,.19,.09c.31-.04,.54-.03,.85-.02h-.04Z"/><path class="e" d="M29.15,49.15l.12-.02s-.09,0-.12,.02Z"/><polygon class="e" points="26.4 49.15 26.53 49.13 26.44 49.11 26.4 49.15"/><path class="e" d="M29.44,49.09c-.08,0-.1,.03-.03,.03l.12-.04h-.09Z"/><polygon class="e" points="29.78 49.15 29.97 49.2 30.08 49.16 29.78 49.15"/><path class="e" d="M37.5,49.19c-.25-.03-.22,.03-.26,.07,.38,.01,0-.05,.26-.07Z"/><path class="e" d="M42.01,50.33c-.09-.28-.3-.47-.51-.67,.18,.19,.38,.46,.51,.67Z"/><path class="e" d="M42.39,52.41c-.02-.07-.03-.16-.04-.01l-.1-.27c-.03,.4,.1,.29,.14,.28Z"/><path class="e" d="M42.41,54.84c0-.15-.01-.22-.02-.27l-.02-.19v.2c-.04-.1-.06-.17-.1-.31,.01,.14,.03,.28,.05,.37,.02,.11,.05,.26,.09,.2Z"/><path class="e" d="M42.25,53.92v.14s.03-.07,0-.14Z"/><path class="e" d="M42.26,54.21v-.15s-.02,.07,0,.15Z"/><path class="e" d="M42.23,55.27c-.16,.02-.45,.01-.54,.02h-.33l.25,.03s.07-.02,.22-.01c.16,.01,.33,.01,.4-.03Z"/><path class="e" d="M38.58,55.22l-.07-.06c-.42-.01-.94,.12-1.19,.02,.18,.04-.35,.07,.15,.09,.2-.06,.81-.06,1.11-.05Z"/><path class="e" d="M37.03,55.13c.07-.02-.03-.03-.09-.05-.15,0-.31,.02-.23,.05,.12-.08,.16,.05,.32,0Z"/><path class="e" d="M35.1,55.14c.12,0,.29,0,.11-.02-.37,0-.27,.07-.45,.12,.3,.04,.57-.06,.34-.09Z"/><path class="e" d="M32.22,54.68c.04,.05,.33,.05,.4,.03-.09,0-.27,0-.4-.03Z"/><polygon class="e" points="32.16 55.12 32.26 55.13 32.38 55.05 32.16 55.12"/><polygon class="e" points="29.97 55.16 29.69 55.22 30.1 55.21 29.97 55.16"/><path class="e" d="M29.55,55.15h-.37l.13,.02c.18,.02,.12-.02,.24-.02Z"/><path class="e" d="M28.45,55.16s.07,0,.1,.01l.33-.03-.43,.02Z"/><path class="e" d="M22.62,54.83c.08-.05-.25-.02-.35-.03-.02,.01,.2,.08,.35,.03Z"/></g><g><path class="e" d="M32.72,10.87l-.05-.15c.01,.06,.03,.11,.05,.15Z"/><polygon class="e" points="37.56 22 37.61 22.04 37.59 22.02 37.56 22"/><path class="e" d="M37.59,22.02l.1,.05c-.13-.1-.13-.09-.1-.05Z"/><path class="e" d="M32.33,9.78l-.08-.35,.08,.35Z"/><path class="e" d="M32.41,11.02s0,.04,0,.08c0-.03,0-.05,0-.08Z"/><path class="e" d="M38.22,16.3l-.04-.03s.03,.03,.04,.03Z"/><path class="e" d="M38.82,16.92l.13,.15h.01s-.1-.11-.14-.15Z"/><path class="e" d="M38.63,16.63l.12,.13-.12-.13Z"/><path class="e" d="M42.63,20.73h.04s-.04,0-.04,0Z"/><path class="e" d="M38.07,16.18l.11,.09c-.06-.05-.14-.15-.11-.09Z"/><path class="e" d="M32.74,10.89s-.01-.02-.02-.02c.01,.03,.02,.05,.02,.02Z"/><path class="e" d="M32.35,9.05s0-.01-.01,0c-.06,.04-.04,.03,0,0h0Z"/><path class="e" d="M37.19,26.21c-.02,.11-.02,.23-.03,.35,.03-.26,.04-.34,.03-.35Z"/><path class="e" d="M36.21,13.86c-.01-.16,.3,.34,.34,.26-.17-.16-.29-.29-.33-.4,.16,.11,.31,.37,.43,.39l-.25-.25c-.12-.2,.13,0-.01-.16-.27-.15-.63-.79-.85-1.03l.08,.08-.29-.41s0,0,0,0c-.01,0-.02,0-.03,0-.09-.19-.31-.49-.59-.8-.15-.08-.88-.99-1.04-1.1,.13,.12,.22,.24,.35,.41l-.08,.02c-.26-.3,.03-.06-.24-.32-.03,.11,.35,.41,.53,.63-.08-.06-.19-.15-.31-.28,.36,.42,.68,.84,1,1.07,.09,.13,0,.1-.08,.02,.31,.27,.15,.26,.41,.48-.15-.03-.58-.6-.84-.82-.28-.43-.77-.9-1.15-1.32,.04-.06,.34,.21,.22,0-.33-.45-.4-.41-.62-.61-.11-.15-.12-.2-.14-.26-.02-.06-.09-.2-.31-.38,.09,.08,.15,.06,.27,.19-.16-.26-.2-.21-.25-.25-.05-.02-.08-.02-.15-.07h0l-.07,.04,.07-.02h0s.09,.1,.24,.24c.03,.08-.13-.08-.2-.16l.05,.06s-.02,.01-.02,.02h0c0,.07-.06,.12-.04,.19,.02,.08,.04,.15,.04,.26-.11-.31,0,.21-.02,.31l-.03-.11,.15,.77h-.02c.06,.2,.14,.27,.19,.59-.03-.03-.18-.39-.1-.04-.05-.04-.12-.43-.16-.75,.04,.32,0,.49-.07,.1-.03,.12,.09,.36,.1,.57,0-.04,.04,.02,.05,0-.07,.02,.14,.76,.19,.76l-.11-.37c.05-.04,.18,.42,.18,.27-.06,.2,.25,.99,.22,1.2l.02-.15c.15,.78,.42,1.39,.67,2.14-.1-.25-.21-.25-.31-.73,.19,.73-.04,.24-.02,.48,.13,.57,.18,.26,.26,.43l-.14-.38c.26,.47,.43,1.46,.81,2.18,0,.07-.08-.15-.13-.24,.08,.36,.14,.32,.25,.51,.14,.35,.31,.77,.14,.59,.16,.38,.02-.06,.13,.13l.02,.08,.27,.36c.14,.33,.31,.73,.33,.91,.43,.72,.29,.17,.63,.68,.15,.31-.08-.02-.12-.04l.3,.45c-.18-.11-.38-.5-.44-.43,.32,.33,.35,.51,.76,.96l-.02-.04c.21,.18,.57,.69,.82,.93-.13-.08-.39-.36-.56-.56,.21,.34,.94,1.05,1.26,1.2,.16,.15,.52,.51,.24,.31,.34,.27,.17,.46,.2,.52,0,.08-.02,.15-.2,.44l-.04-.05c-.46,.62-.59,1.37-.85,2.04l.06,.06c-.07,.14-.15,.45-.18,.5,0-.12,.02-.24,.04-.37-.13,.29-.01,.37-.1,.73,.02,0,.11-.3,.14-.3,.09-.75,.37-1.47,.71-2.15l.28-.5c.08-.18,.22-.28,.28-.59,.02-.14-.08-.28-.17-.37l-.23-.19-.44-.37s.08,.1,.04,.09c-.11-.13-.34-.34-.28-.33l.04,.03c-.3-.28-.46-.61-.61-.8-.15-.08-.49-.67-.45-.47l-.11-.25c-.08-.05-.09,0-.2-.12-.15-.24-.12-.26,.02-.09-.56-.9-1.14-2.02-1.6-3.01l.16,.25c-.09-.25-.44-.85-.25-.68-.25-.47-.47-1.37-.59-1.37,0-.37-.34-1.24-.53-1.96-.06,.15-.17-.59-.25-.77,.05-.12,.21,.59,.27,.59-.3-.72-.36-2.08-.6-2.37,0-.09,0-.09,.01-.06-.03-.15-.03-.34-.04-.49-.05-.08,0,.24-.08-.11-.02-.15,0-.14,.01-.15,.02,0,.04,0,.05-.02-.02-.04-.04-.1-.06-.18,0-.07-.09-.18-.01-.24h0c.06,.04,.14,.1,.17,.07,.08,.13,.11,.23,.05,.18,.05,.03,.17,.17,.26,.27l.22,.26c.13,.16,.26,.32,.55,.64-.2-.23-.16-.06-.42-.41,.14,.33,.88,.99,1.28,1.55l.23,.16c.28,.31,.25,.37,.04,.17,.43,.57,.71,.82,1.06,1.24,.01,.03-.01,.02-.07-.05l.51,.6c.06,.05,.28,.24,.27,.17-.09-.05-.22-.16-.48-.5Z"/><path class="e" d="M36.69,14.36h0s0,0,0,0Z"/><path class="e" d="M32.17,9.14c0-.07-.02-.14,.06-.16-.02,0-.06,0-.06,.03v.12Z"/><path class="e" d="M41.59,19.86c.02-.14-.32-.35-.53-.63,.22,.24,.22,.13,.21,.08-.37-.22-.3-.39-.81-.94,.02-.04,.26,.23,.33,.23-.29-.29-.72-.75-.83-.77-.45-.53-.75-.92-1.04-1.23,.35,.36,.12,.02,.41,.26-.4-.33-1.22-1.12-1.79-1.61,0-.12-.01-.15,.11-.14-.5-.67-.22-.13-.72-.75l.23,.29c-.26-.27-.34-.23-.46-.28l.62,.7s-.42-.41-.54-.53c-.23-.16,.29,.41,.18,.37,.12,.07,.35,.36,.52,.53v.05c.26,.35,.48,.48,.74,.78,.02,.03,.01,.04,0,.04,.12,.08,.24,.16,.41,.33l-.12-.14c.27,.21,.85,.8,.56,.34l.6,.73c-.13-.03-.35-.09-.71-.5l-.07-.03c.23,.34,.8,.83,.68,.59,.42,.18,.95,1.09,1.46,1.57,0,.07-.28-.21-.41-.31-.14-.15-.24-.27-.22-.31-.61-.66,0,.25-.65-.52-.3-.39,.46,.4-.01-.16l-.45-.3c.3,.34,.58,.63,.83,.9,1.39,1.46,2.25,2.6,2.25,2.6l5.83,6.7c.62,.69,.84,.95,1.19,1.13-.1-.17-.48-.59-.32-.47-.11-.04-.36-.29-.67-.66,0-.07,.31,.32,.24,.22l-.06-.07c.05,.02,.12,.07,.22,.18-.29-.46-.97-1.23-1.3-1.45-.25-.37,.26,.17,.44,.32-.98-1.21-1.68-2-2.7-3.19-.09,.04-.15-.08-.34-.2l-.06-.12c.03,.06-.16-.06,.03,.19-.53-.73-.79-.73-1.23-1.17h.07c-.34-.38-.44-.49-.75-.81-.46-.68,.48,.54,.42,.29l-.17-.16c.12,.07,.28,.13,.48,.31-.57-.55-.71-.88-1.31-1.48,.11,.04,.64,.6,.78,.75-.18-.22-.55-.59-.53-.64h-.09c-.34-.38,.09,.01,.02-.14-.79-.91-.27,.02-.96-.72Z"/><path class="e" d="M33.68,10.6c.09,.11,.17,.21,.25,.29l-.25-.29Z"/><path class="e" d="M35.34,12.34s.03,0,.05,.02c-.03-.03-.05-.04-.05-.02Z"/><path class="e" d="M35.57,12.46c.01,.06-.09-.05-.18-.1,.12,.1,.38,.4,.18,.1Z"/><path class="e" d="M49.31,29.49c.07-.02,.39-.04,.31-.06l-.46,.02,.15,.03Z"/><path class="e" d="M48.38,29.41l-.45-.03-.3,.09c.49,0,.27-.06,.76-.07Z"/><path class="e" d="M47.11,29.36l.1-.02c-.09,0-.12,.02-.1,.02Z"/><path class="e" d="M47.09,29.4l-.18,.07,.59-.05h-.23s-.15-.05-.17-.06l-.22,.05c.05,0,.17-.02,.2,0Z"/><path class="e" d="M46.59,29.41s.03,.01,.04,.02c0,0-.01-.01-.04-.02Z"/><path class="e" d="M45.45,29.28c.12,.02-.12,.06-.16,.09,.45,.03,.48-.07,.87-.04-.61,.05,.22,.04,.42,.08-.12-.06-.35-.11-.8-.12l-.05,.04c-.24,0-.12-.02-.29-.04Z"/><path class="e" d="M43.05,29.38l.36-.06c.06,.03,.64,.03,.61,.09,.2,0,.24-.04,.4-.05,.16,.03,.27,.06,.47,.01-.87-.04-.61-.06-1.36-.08,.02-.01,.11-.01,.2,0l-.49-.03c-.05,.08-.68,.08-.2,.13Z"/><path class="e" d="M42.33,29.34c.39,0,.61-.06,.41-.1l-.83,.05c.24,0,.54,0,.42,.05Z"/><path class="e" d="M41.75,29.34c-.16-.03-.41-.1-.68-.04,.45-.01,.24,.08,.68,.04Z"/><path class="e" d="M38.92,29.28l.77,.04c.14,.08-.37,.03-.61,.06,.66,.02,.45-.01,.94-.06,.19,0,.48-.04,.7-.06-1,.07-1.05-.13-1.81,.02Z"/><polygon class="e" points="40.46 29.36 40.55 29.33 40.18 29.35 40.46 29.36"/><path class="e" d="M37.4,28.83c-.05-.46-.3-.83-.3-1.36,.01,.05,.02,.02,.04,.12-.02-.14-.03-.29-.04-.44l.02-.02c-.06,.03-.09-.43-.1-.63-.09,.46,.05,.23-.02,.63-.03-.1-.07-.17-.09-.26,.02,.28,.07,.35,.1,.47,.03,.3,0,.21-.03,.23,.07,.33,.15,.32,.25,.81,.03,.33-.14-.16,.04,.36,0-.15,.04,0,.1,.18,.04,.21,.27,.35,.38,.3,.41,.03,.68,.08,.59,.11-.01-.07,.35-.13,.67-.16l-.7,.06-.24-.08c-.19,.02-.36,.04-.48-.01-.11-.05-.17-.2-.22-.37l.02,.05Z"/><path class="e" d="M36.91,26.88v-.16c-.01,.06,0,.11,0,.16Z"/><polygon class="e" points="38.47 29.38 38.3 29.39 38.42 29.42 38.47 29.38"/><path class="e" d="M36.87,26.52c-.01,.1,.01,.13,.02,.04l-.03-.15v.11Z"/><path class="e" d="M36.98,26.1c.03-.07,.05-.15,.09-.22v-.15c-.04,.12-.07,.25-.09,.37Z"/><path class="e" d="M34.69,18.09c.11,.29,.15,.23,.21,.26-.2-.42-.05,.01-.21-.26Z"/><path class="e" d="M32.72,12.43c.04,.34,.16,.63,.24,.96-.04-.3-.15-.7-.24-.96Z"/><path class="e" d="M32.05,9.87c.02,.13,.08,.35,.04,.03,.06,.22,.11,.27,.17,.38-.02-.22-.08-.39-.1-.42-.03-.04-.08,0-.1,0Z"/><path class="e" d="M33.87,10.32l-.34-.33,.16,.19c-.11-.06-.18-.12-.32-.23,.24,.25,.49,.47,.5,.37Z"/><path class="e" d="M33.08,9.64l.12,.13s-.03-.08-.12-.13Z"/><path class="e" d="M33.32,9.91l.05,.04-.17-.18s.04,.08,.12,.14Z"/><path class="e" d="M34.06,10.62l.54,.61-.19-.25c-.09,0-.22-.31-.35-.36Z"/><path class="e" d="M36.79,13.88v.1c.33,.4,.86,.8,.98,1.1-.12-.2,.33,.28-.05-.2-.21-.15-.7-.72-.93-1.01Z"/><path class="e" d="M37.96,15.38c-.07-.05,0,.05,.03,.11,.11,.14,.27,.28,.22,.18-.16-.06-.09-.19-.26-.3Z"/><path class="e" d="M39.52,17.18c-.1-.11-.24-.27-.11-.09,.3,.34,.27,.2,.45,.35-.22-.31-.5-.49-.34-.26Z"/><path class="e" d="M41.48,20.18c0-.07-.23-.34-.3-.39,.08,.08,.21,.26,.3,.39Z"/><polygon class="e" points="41.87 19.95 41.8 19.84 41.64 19.78 41.87 19.95"/><polygon class="e" points="43.67 21.96 43.93 22.19 43.59 21.81 43.67 21.96"/><path class="e" d="M44,22.37l.3,.34-.09-.13c-.13-.18-.11-.09-.21-.21Z"/><path class="e" d="M44.89,23.39s-.06-.07-.07-.1l-.29-.29,.37,.39Z"/><path class="e" d="M49.32,29.05c-.09-.03,.08,.14,.19,.27l-.03-.22-.05,.1s.04-.02,.08-.08l.03,.19c-.05-.08-.12-.18-.22-.24Z"/></g><g><path class="e" d="M15.8,29.09l-.15,.02c.06,0,.12,0,.15-.02Z"/><polygon class="e" points="27.14 28.13 27.15 28.07 27.14 28.09 27.14 28.13"/><path class="e" d="M27.14,28.09v-.11c-.03,.16-.02,.16,0,.11Z"/><path class="e" d="M14.67,29.29c-.11,0-.27,.03-.28-.1,0,.14,.17,.11,.28,.1Z"/><path class="e" d="M15.89,29.43s.04,.01,.08,.02c-.02,0-.05-.01-.08-.02Z"/><path class="e" d="M20.93,22.05l-.02,.04s.02-.04,.02-.04Z"/><path class="e" d="M21.45,21.38l.13-.15h0s-.1,.1-.13,.15Z"/><path class="e" d="M21.2,21.61l.11-.13-.11,.13Z"/><path class="e" d="M24.58,17.11v-.04s0,.04,0,.04Z"/><path class="e" d="M20.84,22.22l.07-.12c-.04,.06-.12,.16-.07,.12Z"/><path class="e" d="M15.82,29.08h-.03s.05,0,.03,0Z"/><path class="e" d="M14.74,28.81h-.01c-.05,.07-.03,.05,.01,0Z"/><path class="e" d="M28.38,23.67l.08-.34c-.08,.26-.09,.34-.08,.34Z"/><path class="e" d="M18.86,24.36c-.15,.03,.29-.34,.2-.37-.14,.19-.24,.33-.34,.38,.08-.18,.31-.36,.32-.48l-.2,.28c-.17,.14-.02-.13-.15,.03-.11,.29-.68,.73-.88,.98l.07-.09-.36,.34s0,0,0,0c0,.01,0,.02,0,.03-.17,.11-.44,.37-.7,.69-.06,.16-.83,1-.92,1.17,.1-.14,.2-.25,.35-.41l.03,.07c-.25,.29-.07-.03-.28,.28,.12,.01,.35-.41,.53-.6-.05,.09-.12,.21-.22,.34,.36-.41,.72-.78,.89-1.13,.12-.1,.1-.02,.03,.07,.21-.34,.23-.18,.41-.47,0,.15-.49,.65-.68,.94-.38,.33-.76,.88-1.11,1.31-.07-.03,.15-.36-.03-.22-.39,.39-.33,.44-.51,.7-.27,.28-.11-.04-.52,.43l.21-.31c-.32,.22-.16,.25-.43,.52,.1-.08,.14-.09,.33-.32,.05,0-.1,.19-.17,.28l.05-.06c-.05,.13,0,.15-.24,.39,0-.03,0-.03-.03-.01-.03,.02-.07,.05-.03,.11,.07,.06,.25,.02,.28,.05h.65c.22-.02,.3-.09,.61-.07-.03,.03-.41,.1-.06,.09-.05,.04-.43,.05-.75,.03,.31,.02,.47,.08,.09,.09,.11,.05,.36-.02,.57,0-.04-.02,.03-.03,.01-.05,.01,.07,.75,0,.76-.04l-.38,.04c-.03-.06,.44-.1,.29-.13,.18,.09,1-.04,1.2,.03l-.14-.05c.78,.03,1.42-.08,2.21-.1-.27,.03-.29,.13-.78,.09,.74,.02,.22,.1,.45,.15,.58,.04,.3-.09,.48-.12l-.4,.02c.52-.12,1.49,.03,2.29-.04,.06,.03-.16,.02-.27,.03,.36,.06,.35-.01,.56-.03,.37,0,.82,.04,.59,.11,.41,.02-.04-.04,.17-.07l.08,.02,.43-.08c.35,.02,.78,.06,.94,.13,.82-.01,.29-.16,.89-.19,.34,.04-.06,.06-.1,.08h.53c-.19,.07-.62,.03-.59,.13,.45-.1,.6-.03,1.2-.09h-.04c.13-.05,.37-.01,.52-.12,.15-.11,.19-.37,.24-.53-.01,.13-.05,.57-.33,.64,.24-.01,.34-.4,.41-.71,.08-.33,.15-.65,.15-.83,.07-.21,.24-.66,.18-.34,.23-.76-.02-.35,.19-1l.05,.04c.29-.7,.32-1.44,.59-2.11l-.06-.06c.07-.14,.17-.44,.21-.49l-.07,.36c.14-.28,.03-.36,.18-.71-.02,0-.16,.28-.18,.27-.36,1.48-.87,2.9-1.23,4.39,.03-.05,.06-.12,.06-.07-.07,.16-.13,.46-.16,.4v-.05c-.04,.19-.11,.38-.18,.52-.07,.15-.14,.17-.19,.19-.02,.1-.76,0-.56,.1l-.26-.06c-.09,.03-.04,.08-.21,.09-.28,0-.28-.04-.06-.07-1.05-.04-2.3-.03-3.38,0l.29-.04c-.26-.02-.94,.07-.72-.03-.53,.04-1.44-.03-1.48,.08-.35-.11-1.28-.05-2.01-.03,.12,.1-.6,.03-.8,.07-.1-.07,.61-.08,.63-.13-.76,.12-2.09-.09-2.41,.11-.09,0-.09-.02-.06-.02-.15,0-.34-.03-.48-.04-.08,.03,.22,.05-.11,.06-.15,0-.04-.06-.06-.09-.04,0-.13,.06-.16,0l.08-.14s.12-.18,.17-.25c.05-.08,.09-.15,.09-.18,.12-.1,.26-.2,.16-.06,.5-.68,.53-.6,1.06-1.27-.19,.23-.04,.17-.34,.47,.3-.18,.83-1,1.31-1.47l.12-.25c.26-.32,.32-.29,.16-.06,.49-.5,.7-.81,1.04-1.21,.03-.02,.02,0-.04,.07l.51-.58c.04-.07,.19-.3,.12-.29-.03,.1-.12,.24-.41,.54Z"/><path class="e" d="M19.27,23.82v0s0,0,0,0Z"/><path class="e" d="M14.4,29.04c.05-.07,.13-.14,.18-.18-.03,.03-.13,.1-.18,.18Z"/><path class="e" d="M23.9,18.25c-.14,0-.29,.37-.53,.6,.2-.25,.1-.23,.05-.22-.15,.39-.34,.35-.79,.92-.04-.02,.18-.29,.17-.35-.24,.33-.62,.81-.62,.93-.44,.52-.78,.87-1.04,1.19,.3-.39,0-.12,.19-.44-.26,.44-.91,1.36-1.3,1.98-.12,.01-.15,.03-.15-.09-.58,.59-.1,.23-.62,.81l.25-.26c-.22,.29-.17,.36-.21,.49l.59-.7s-.34,.47-.44,.61c-.13,.25,.36-.34,.33-.23,.05-.13,.3-.39,.43-.58h.05c.3-.31,.4-.55,.65-.84,.03-.02,.04-.02,.04-.01,.06-.13,.12-.26,.26-.44l-.11,.14c.16-.3,.65-.95,.24-.59l.62-.69c0,.13-.03,.35-.38,.77v.07c.28-.27,.68-.9,.45-.75,.12-.43,.92-1.08,1.31-1.65,.07,0-.16,.3-.24,.45-.13,.16-.22,.27-.27,.26-.55,.69,.24-.03-.41,.71-.34,.35,.32-.5-.15,.03l-.22,.48c.29-.34,.53-.66,.75-.94,1.22-1.57,2.19-2.57,2.19-2.57l5.66-6.65c.58-.71,.8-.95,.92-1.32-.15,.12-.5,.56-.41,.38-.02,.11-.23,.39-.54,.75-.07,0,.27-.35,.18-.26l-.06,.07c.01-.05,.05-.13,.15-.24-.41,.35-1.05,1.12-1.22,1.48-.32,.29,.13-.28,.24-.47-1.03,1.13-1.7,1.92-2.71,3.09,.06,.08-.06,.16-.15,.36l-.11,.08c.06-.04-.04,.17,.18-.05-.63,.62-.59,.88-.96,1.37v-.06c-.33,.39-.43,.5-.69,.85-.59,.55,.45-.55,.21-.46l-.14,.19c.05-.13,.09-.3,.23-.51-.44,.64-.75,.82-1.25,1.5,.02-.11,.48-.71,.61-.87-.19,.21-.49,.62-.54,.61v.09c-.31,.39,0-.09-.13,0-.76,.9,.06,.26-.55,1.04Z"/><path class="e" d="M16.06,27.3c.1-.1,.18-.2,.24-.29l-.24,.29Z"/><path class="e" d="M17.5,25.43s0-.03,.01-.05c-.02,.04-.03,.05-.01,.05Z"/><path class="e" d="M17.58,25.19c.06-.02-.04,.09-.07,.19,.08-.13,.34-.43,.07-.19Z"/><path class="e" d="M32.03,9.45c0-.07,.02-.38,0-.31l-.05,.45,.06-.14Z"/><path class="e" d="M31.8,10.33l-.1,.43,.04,.31c.08-.47-.02-.27,.06-.75Z"/><path class="e" d="M31.53,11.56v-.1c-.01,.09,0,.11,0,.1Z"/><path class="e" d="M31.56,11.58l.03,.18,.07-.58-.06,.22s-.06,.14-.08,.15v.22c0-.05,.02-.16,.03-.2Z"/><path class="e" d="M31.46,12.07s.02-.03,.03-.03c0,0-.02,0-.03,.03Z"/><path class="e" d="M31.1,13.14c.05-.11,.03,.13,.05,.17,.12-.43,.03-.47,.14-.85-.08,.6,.09-.2,.16-.39-.09,.1-.17,.31-.29,.75l.03,.06c-.05,.23-.05,.11-.1,.27Z"/><path class="e" d="M30.69,15.46l.02-.36c.04-.05,.17-.61,.23-.57,.03-.2,.01-.24,.03-.4,.07-.14,.11-.25,.11-.45-.23,.82-.19,.57-.37,1.29,0-.02,.01-.11,.04-.2l-.14,.46c.07,.06-.07,.67,.08,.23Z"/><path class="e" d="M30.48,16.14c.08-.38,.07-.6,0-.42l-.14,.81c.05-.23,.11-.52,.15-.39Z"/><path class="e" d="M30.35,16.69c-.07,.14-.2,.37-.19,.64,.09-.43,.14-.21,.19-.64Z"/><path class="e" d="M29.63,19.38l.22-.73c.11-.12-.06,.36-.08,.59,.17-.62,.1-.43,.16-.92,.05-.18,.08-.47,.1-.68-.17,.97-.37,.97-.41,1.73Z"/><polygon class="e" points="30.08 17.93 30.07 17.83 30.01 18.19 30.08 17.93"/><path class="e" d="M29.1,21.1c-.21,.42-.17,.86-.34,1.35,0-.05,0-.02,0-.13l-.1,.43h-.03c.06,0-.03,.45-.04,.65,.18-.42-.01-.24,.16-.6,0,.1,.02,.18,.02,.27,.04-.27,.02-.34,.02-.47,.07-.29,.08-.19,.11-.21,.05-.32-.03-.35,.11-.83,.13-.3,.03,.2,.15-.33-.16,.24,.15-.53,.15-.75,.12-.39,.24-.63,.25-.54-.07,0-.05-.37,0-.68l-.11,.68-.14,.2c-.06,.38-.13,.64-.23,1v-.05Z"/><path class="e" d="M28.78,23.07l-.02,.15c.02-.06,.02-.1,.02-.15Z"/><polygon class="e" points="29.62 19.84 29.59 20 29.65 19.9 29.62 19.84"/><path class="e" d="M28.74,23.42c.03-.09,0-.13-.02-.04v.15l.02-.11Z"/><polygon class="e" points="28.58 23.8 28.48 24.01 28.48 24.16 28.58 23.8"/><path class="e" d="M23.19,29.33c.3,.03,.27-.03,.32-.07-.46-.01-.01,.05-.32,.07Z"/><path class="e" d="M17.31,29.4c.34,.04,.64-.02,.97-.02-.3-.03-.7-.01-.97,.02Z"/><path class="e" d="M14.6,29.57s.13,.01,.18,0c.05-.01-.02,0-.13-.03,.15,0,.44-.06,.5-.09-.64-.02-.51,.04-.54,.11Z"/><path class="e" d="M15.76,27.15l-.27,.37,.16-.18c-.05,.12-.08,.19-.17,.35,.21-.27,.39-.55,.29-.54Z"/><path class="e" d="M15.21,28.02l.11-.13s-.07,.04-.11,.13Z"/><path class="e" d="M15.44,27.75l.03-.05-.15,.19s.07-.05,.12-.14Z"/><path class="e" d="M16.02,26.92l.51-.61-.21,.22c0,.09-.27,.26-.3,.39Z"/><path class="e" d="M18.78,23.79l.1-.02c.34-.38,.65-.95,.93-1.11-.17,.14,.22-.36-.19,.08-.12,.22-.6,.79-.84,1.05Z"/><path class="e" d="M20.07,22.43c-.04,.07,.05-.01,.11-.05,.12-.13,.23-.3,.15-.24-.03,.17-.17,.12-.25,.29Z"/><path class="e" d="M21.6,20.66c-.1,.11-.22,.27-.07,.12,.29-.34,.16-.3,.27-.49-.27,.26-.41,.56-.2,.37Z"/><path class="e" d="M24.22,18.31c-.07,0-.3,.28-.34,.35,.07-.09,.22-.25,.34-.35Z"/><polygon class="e" points="23.93 17.96 23.84 18.05 23.81 18.21 23.93 17.96"/><polygon class="e" points="25.63 15.92 25.81 15.63 25.49 16.02 25.63 15.92"/><path class="e" d="M25.97,15.54l.29-.34-.12,.1c-.15,.15-.07,.12-.17,.23Z"/><path class="e" d="M26.83,14.53s-.06,.07-.09,.09l-.24,.33,.33-.41Z"/><path class="e" d="M31.7,9.39c-.02,.08,.11-.08,.21-.2l-.23,.06,.13,.05s-.04-.05-.12-.09l.19-.05c-.06,.06-.14,.14-.18,.22Z"/></g><g><path class="e" d="M22.16,29.97l.25-.02c-.1,0-.19,0-.25,.02Z"/><polygon class="e" points="25.36 45.29 25.47 45.29 25.42 45.28 25.36 45.29"/><path class="e" d="M25.42,45.28l.18-.03c-.27,.01-.26,.02-.18,.03Z"/><path class="e" d="M23.97,29.76c.18,0,.36-.02,.53-.04l-.53,.04Z"/><path class="e" d="M22.01,29.64s-.06-.01-.13-.02l.13,.02Z"/><path class="e" d="M40.13,30.05h-.08s.07,0,.08,0Z"/><path class="e" d="M41.51,30h.33c-.05-.01-.24,0-.33,0Z"/><path class="e" d="M40.96,29.96h0Z"/><path class="e" d="M43.67,36.47l.03,.04s-.02-.05-.03-.04Z"/><path class="e" d="M39.83,30.09l.23-.03c-.12,0-.32,.01-.23,.03Z"/><path class="e" d="M22.12,29.98s.03,0,.04-.01c-.05,0-.08,0-.04,.01Z"/><path class="e" d="M25.27,29.77h-.03c-.12,0-.07,0,.03,0Z"/><path class="e" d="M32.11,44.71v-.57c-.02,.43-.01,.57,0,.57Z"/><path class="e" d="M35.09,29.98c-.2-.09,.72,0,.67-.09-.37,.02-.65,.03-.83-.01,.31-.05,.77,0,.92-.07l-.56,.03c-.36-.04,.14-.1-.2-.09-.47,.11-1.61-.04-2.13-.03h.19l-.8-.06s0,0,0,0c-.01,0-.03,.01-.04,.02-.32-.05-.92-.09-1.58-.08-.25,.06-2.11,.02-2.41,.07,.28-.01,.52-.02,.87,0l-.05,.07c-.63,0-.04-.07-.64-.02,.11,.1,.87,0,1.31,.01-.16,.02-.38,.04-.65,.05,.88,0,1.73,.04,2.33-.06,.25,.02,.13,.06-.05,.07,.64-.06,.47,.06,1.01,0-.19,.09-1.32,.05-1.87,.1-.81-.07-1.88,0-2.79,0-.04-.07,.6-.12,.24-.16-.89-.04-.89,.04-1.4,.07-.64-.02-.07-.11-1.08-.12l.6-.04c-.58-.09-.56,.04-1,.02,.15,.02,.15,.05,.65,.05,.05,.03-.34,.05-.52,.05h.12c-.21,.05-.28,.1-.92,.07,.4-.06-.51-.04-.67-.07h-1.05c-.35,.02-.48,.09-.99,.07,.05-.03,.66-.1,.1-.09,.08-.04,.7-.05,1.22-.03-.51-.02-.77-.08-.14-.09-.17-.05-.59,.02-.92,0,.06,.02-.05,.03-.02,.05-.02-.07-1.21-.02-1.26,.05,.23-.03,.42-.03,.63-.05,.05,.06-.72,.1-.47,.13-.06,0-.24-.07-.33,.09-.05,.16-.02,.37-.02,.57,.01,.41,.03,.83-.01,.98l.05-.22c-.03,1.26,.08,2.31,.1,3.58-.03-.44-.13-.47-.09-1.26-.02,1.2-.1,.35-.15,.72-.04,.93,.09,.48,.12,.77l-.02-.65c.12,.84-.02,2.42,.05,3.72-.03,.1-.02-.26-.03-.44-.06,.58,.01,.56,.04,.91,0,.6-.04,1.32-.11,.95-.02,.66,.04-.07,.07,.28l-.02,.12c.03,.23,.07,.46,.12,.69,.02,.57,.18,1.24,.21,1.5,.59,1.21,.32,.37,.86,1.15,.29,.45-.11-.05-.16-.07,.17,.23,.35,.45,.55,.65-.28-.16-.67-.74-.7-.65,.5,.53,.61,.79,1.43,1.31l-.04-.04c.37,.21,1.24,.68,1.8,.75-.23,0-.83-.17-1.2-.36,.27,.16,.8,.37,1.34,.44,.54,.08,1.08,.01,1.36-.02,.36,.01,1.14,.05,.61,.08,1.29,.02,.54-.12,1.65-.09l-.04,.06c1.22,.1,2.39-.07,3.55,.02l.07-.08c.09,.04,.25,0,.25-.16,.01-.15,.03-.32,.04-.36-.01,.19,.07,.41-.04,.56,.16-.18,.06-.37,.07-.52-.02-.16-.04-.34-.01-.64-.02,0-.08,.5-.11,.5v.45c.02,.1-.08,.17-.17,.16h-.92l-1.84-.03c-1.23-.02-2.46-.03-3.7,0,.09,.01,.2,.02,.14,.04-.27,0-.76-.04-.68-.07h.09c-.64-.04-1.15-.34-1.48-.5-.26-.03-1.07-.71-.9-.48-.09-.11-.19-.2-.28-.31-.12-.07-.1,.01-.3-.16-.29-.34-.26-.36-.02-.12-.55-.62-.98-1.44-1.18-2.32-.21-.88-.14-1.83-.17-2.71l.04,.47c.02-.42-.08-1.53,.03-1.17-.04-.85,.03-2.33-.08-2.39,.11-.57,.05-2.07,.03-3.26-.1,.2-.03-.98-.07-1.3,.07-.17,.08,1,.13,1.01-.03-.31-.04-.67-.04-1.06v-.85s.02-.07,.05-.08c0-.02,.21,0,.39,0h.48c.3-.02,.53-.04,.66-.09,.15,0,.15,.02,.1,.02,.24,0,.55,.03,.78,.04,.14-.03-.37-.05,.19-.06,.45,0,.19,.06,.38,.09,.85-.04,2.21-.06,2.36-.14,.25,.02,.52,.06,.24,.08,1.36-.06,1.31,.01,2.68-.03-.48,0-.24,.08-.93,.05,.54,.11,2.11-.02,3.2,.04l.44-.07c.67-.01,.71,.05,.24,.08,1.13,.04,1.73,0,2.6,0,.05,0,.01,.02-.13,.02h1.25c.13-.02,.58-.05,.48-.09-.15,.04-.42,.06-1.1,.04Z"/><path class="e" d="M36.19,29.95h-.02s.01,0,.02,0Z"/><path class="e" d="M24.83,29.64c.12,.02,.22,.03,.31,.03-.06-.01-.14-.02-.31-.03Z"/><path class="e" d="M43.45,34.35c.11-.16-.02-.76,.01-1.31,.02,.52,.08,.39,.11,.32-.14-.64,.03-.79,0-1.97,.04-.03,.05,.55,.1,.61-.03-.65-.05-1.65-.13-1.8,0-.13,.01-.32-.11-.41-.13-.08-.29-.06-.4-.07h-1.79c.8-.04,.15-.09,.74-.15-.81,.09-2.63,.2-3.82,.31-.14-.08-.2-.09-.05-.17-1.33-.06-.39,.08-1.65,.05h.59c-.6,.04-.63,.12-.82,.18h1.49s-.93,.04-1.21,.05c-.44,.07,.8,.05,.64,.1,.21-.05,.8-.03,1.17-.05l.07,.03c.69,.03,1.08-.05,1.71-.04,.06,0,.06,.02,.05,.02,.22-.04,.44-.08,.83-.09h-.29c.53-.07,1.86-.12,.99-.2l1.51,.03c-.17,.08-.47,.2-1.34,.21l-.1,.03c.33,.02,.79,0,1.11-.02,.35-.03,.44-.06,.3-.11,.07-.02,.14-.05,.23,0,.08,.06,.08,.16,.09,.29,.01,.26,0,.57,0,.88-.01,.63-.04,1.32,0,1.88-.05,.08-.07-.53-.11-.8,0-.33,0-.57,.04-.6-.03-1.43-.17,.29-.15-1.31,0-.2,.01-.15,.02-.15,.01,0,.02,.1,.03,.19,.02,.21,.04,.31,.03-.21-.02-.07-.1-.08-.14-.05-.05,.02-.24,.05-.36,.07,.17,0,.41,0,.36,0,.01,.02,.01-.05,.02,.15l.03,.92c.1,3.21,.01,5.49,.01,5.49-.1,2.33,.48,4.88-1.07,6.68-.7,.89-1.7,1.52-2.81,1.79-.29,.06-.54,.11-.83,.1h-2.66c-1.48,.03-2.01,.03-2.6,.17,.31,.03,1.21,.02,.91,.07,.16-.05,.72-.08,1.49-.08,.08,.05-.71,.03-.51,.04h.15c-.08,.03-.21,.05-.45,.05,.87,.08,2.49,.06,3.11-.04,.71,.05-.48,.08-.84,.13,2.43,.28,4.49-.49,5.82-2.69-.07-.08,.09-.25,.16-.6l.12-.19c-.06,.09,.02-.25-.19,.19,.3-.65,.35-1.09,.35-1.46,0-.37-.06-.67-.08-1.17l.05,.07c0-.82,0-1.06-.04-1.76,.09-1.31,.01,1.15,.13,.79l-.02-.37c.05,.21,.13,.46,.16,.87-.08-1.25,.03-1.8-.03-3.16,.05,.16,.1,1.39,.1,1.72,0-.46-.03-1.28,.02-1.32l-.07-.09c0-.81,.06,.11,.11-.16,0-1.92-.22-.26-.26-1.87Z"/><path class="e" d="M28.52,29.78c.23,0,.43,0,.61,0h-.61Z"/><path class="e" d="M32.35,29.65s.04-.02,.07-.02c-.07,0-.1,.01-.07,.02Z"/><path class="e" d="M32.73,29.56c.09,.03-.15,.03-.31,.07,.25-.02,.88-.02,.31-.07Z"/><path class="e" d="M32.3,44.92c.02,.12,.04,.62,.05,.49l-.02-.74-.03,.25Z"/><path class="e" d="M32.38,43.44v-.19c0-.13,.11-.23,.21-.29,.11-.07,.19-.07,.28-.1,.14-.08,.29-.16,.42-.25-.32,.13-.44,.17-.53,.22-.05,.03-.08,.03-.16,.09-.07,.06-.21,.13-.22,.33v.19Z"/><path class="e" d="M34.02,42.31s-.07,.08-.11,.11c.12-.09,.13-.12,.11-.11Z"/><path class="e" d="M34.02,42.26c.06-.07,.1-.15,.15-.23-.19,.22-.43,.4-.69,.55,.1-.05,.21-.1,.31-.16,.02,.02,.21-.1,.24-.12,.08-.08,.15-.17,.22-.26-.05,.06-.17,.19-.22,.22Z"/><path class="e" d="M34.52,41.69l-.05,.04s.02,0,.05-.04Z"/><path class="e" d="M34.89,39.99c0,.18-.09-.18-.13-.23,.08,.69,.19,.74,.06,1.35,.09-.96-.04,.36-.31,.57,.13-.12,.39-.43,.42-1.17l-.04-.08c-.02-.38,.02-.18,0-.46Z"/><path class="e" d="M33.22,36.59c.13,.15,.25,.3,.37,.45,.03,.1,.49,.9,.4,.89,.16,.28,.2,.32,.33,.55,.07,.24,.12,.41,.27,.69-.47-1.28-.31-.92-.87-1.97,.02,.02,.1,.14,.17,.28-.12-.23-.25-.46-.38-.69-.1-.02-.68-.84-.29-.2Z"/><path class="e" d="M32.57,35.66c.4,.48,.64,.73,.49,.45-.28-.35-.58-.68-.9-.99,.28,.28,.58,.64,.41,.53Z"/><path class="e" d="M31.99,35.07c-.13,.11-.47,.41-.67,.78,.42-.55,.33-.28,.67-.78Z"/><path class="e" d="M29.65,38.84c.12-.39,.3-.77,.49-1.13,.17-.17-.24,.53-.31,.91,.39-.96,.25-.66,.57-1.38l.56-.97c-.44,.68-.64,.99-.86,1.34-.19,.32-.35,.62-.45,1.23Z"/><polygon class="e" points="30.8 36.68 30.85 36.54 30.55 37.05 30.8 36.68"/><path class="e" d="M29.82,41.71c.36,.72,1.09,1.02,1.88,1.3-.09-.02-.03,0-.21-.04,.24,.08,.47,.12,.58,.27v.03s.12,.07,.13,.29c.01,.21,.03,.48,.05,.64,.03-.36,.02-.46,0-.54-.03-.08,.02-.16-.08-.46,.1,.12,.15,.25,.17,.4-.02-.48-.26-.55-.42-.6-.45-.16-.31-.13-.33-.17-.49-.16-.58-.04-1.23-.56-.34-.41,.25,.18-.36-.47,.11,.2-.05,.03-.21-.26-.16-.29-.27-.7-.32-.87-.1-.67,.07-1.1,.07-.95-.08,.01-.08-.58,.07-1.08-.1,.37-.16,.74-.17,1.12-.04,.12-.07,.25-.1,.38,.07,.63,.18,1.1,.52,1.62l-.06-.07Z"/><path class="e" d="M32.34,43.61v.25c.01-.1,0-.17,0-.25Z"/><path class="e" d="M29.59,39.56c-.01,.09,0,.17,0,.26l.04-.18-.03-.08Z"/><path class="e" d="M32.39,44.17c0-.15-.02-.2-.03-.05l.04,.23v-.18Z"/><path class="e" d="M32.34,44.84l-.05,.37c0,.09-.02,.19-.09,.25,.11-.07,.14-.2,.14-.32v-.3Z"/><path class="e" d="M20.49,40.25c0,.49,.06,.44,.11,.51-.05-.74-.06-.01-.11-.51Z"/><path class="e" d="M20.4,30.69c-.04,.55,.02,1.04,.02,1.58,.03-.49,.01-1.14-.02-1.58Z"/><path class="e" d="M23.77,29.47c-.13,.02-.32,.03-.03,.04l-.52,.1c.79,.03,.58-.1,.55-.14Z"/><path class="e" d="M28.38,29.45l-.75,.04h.39c-.19,.04-.33,.06-.61,.1,.55-.02,1.08-.06,.97-.14Z"/><path class="e" d="M26.74,29.61h.28c-.08-.02-.13-.03-.28,0Z"/><path class="e" d="M27.31,29.6h-.3c.06,.01,.14,.02,.3,0Z"/><path class="e" d="M28.94,29.5h1.29l-.49-.03c-.11,.06-.6-.04-.8,.03Z"/><path class="e" d="M35.71,29.56l.13,.06c.83,.01,1.85-.12,2.35-.02-.36-.04,.68-.07-.29-.09-.4,.06-1.6,.06-2.19,.05Z"/><path class="e" d="M38.75,29.65c-.13,.02,.07,.03,.17,.05,.29,0,.61-.02,.45-.05-.24,.08-.32-.05-.63,0Z"/><path class="e" d="M42.55,29.65c-.24,0-.57,0-.23,.02,.74,0,.49-.08,.94-.11-.68-.06-1.14,.05-.71,.08Z"/><path class="e" d="M43.16,34.61c.05-.08,.05-.65,.03-.79,0,.19,0,.53-.03,.79Z"/><polygon class="e" points="43.6 34.74 43.62 34.54 43.53 34.3 43.6 34.74"/><polygon class="e" points="43.65 39.05 43.7 39.6 43.69 38.78 43.65 39.05"/><path class="e" d="M43.63,39.87c0,.24,0,.48-.02,.73l.03-.26c.03-.36-.02-.23-.02-.47Z"/><path class="e" d="M43.32,42.05c.02-.09,.05-.14,.08-.19,.07-.21,.09-.44,.13-.66-.05,.29-.12,.57-.21,.85Z"/><path class="e" d="M33.19,45.26c.17-.06-.5,0-.67-.05-.04,.02,.36,.11,.67,.05Z"/></g><g><path class="e" d="M39.61,55.48l.39-.02c-.16,0-.29,0-.39,.02Z"/><path class="e" d="M17.15,45.15v0Z"/><path class="e" d="M17.14,45.07l-.04-.28c.02,.42,.03,.4,.04,.28Z"/><path class="e" d="M42.31,55.1c.02-.27-.01-.56-.02-.81,0,.27,.04,.55,.02,.81Z"/><path class="e" d="M39.37,55.14s-.09-.01-.2-.02l.2,.02Z"/><path class="e" d="M47.57,33.14v.12c0-.06,0-.1,0-.12Z"/><path class="e" d="M47.55,31v-.52c0,.08,0,.37,0,.52Z"/><path class="e" d="M47.5,31.85v0Z"/><path class="e" d="M44.75,23.1l-.07-.03s.07,.04,.07,.03Z"/><path class="e" d="M47.61,33.61l-.02-.36c0,.19,0,.5,.02,.36Z"/><path class="e" d="M39.54,55.49h.07c-.08,0-.12,0-.07,0Z"/><path class="e" d="M42.33,53.08v.04c0,.18,0,.11,0-.04Z"/><path class="e" d="M16.93,33.5l-.02-.88v.69c.01,.14,.02,.19,.02,.19Z"/><path class="e" d="M47.39,40.96c-.1,.31,.01-1.12-.08-1.04,.01,.58,.02,1.02-.03,1.28-.04-.48,.02-1.2-.05-1.43l.02,.87c-.05,.56-.1-.21-.1,.31,.09,.73-.08,2.5-.08,3.31v-.29l-.07,1.24s0,0,0,0c0,.02,.01,.04,.02,.06-.06,.49-.12,1.42-.12,2.46,.03,.2,0,1.01,0,1.85,.06,.81-.52,1.47-.67,1.59,.3-.26,.5-.59,.66-1.06l.05,.1c-.16,.45-.22,.45-.22,.45-.02,0,0,.02-.26,.38,.09-.02,.31-.29,.44-.66,.15-.37,.09-.84,.1-1.18,0,.25,.08,.59-.02,1.01,.13-1.36,.12-2.67,.06-3.62,.03-.39,.07-.2,.07,.09-.04-1,.07-.72,.03-1.57,.09,.29,0,2.05,.04,2.9-.07,.64-.02,1.35-.1,2.12-.09,.39-.26,.74-.52,1.04-.27,.29-.6,.49-.92,.65-.06-.01,.76-.58,.26-.32-.61,.32-.95,.39-1.2,.49-.26,.09-.44,.16-.83,.26-.49,.08-.52,.05-.62,.04-.05,0-.12,0-.27,0l-.3,.04c-.11,0-.39,.07-.42,.34,0-.21,.23-.35,.4-.36l.45-.09c-.23,.01-.38,.02-.53,.05-.18,.03-.32,.16-.35,.29-.06,.29,.02,.39,0,.75l.03-.3v-.26c0-.12,.08-.34,.33-.38,.06,.02-.12,.02-.22,.19-.08,.18-.02,.4-.04,.55v-.18c.05,.33,.1,.43,.08,1.43-.03-.31-.04-.11-.05,.19v.49c0,.17-.12,.28-.2,.26,.09,0,.15-.09,.15-.17-.01,.22-.28,.17-.43,.18h-1.35c-.55,.02-.75,.09-1.54,.07,.08-.03,1.03-.1,.15-.09,.12-.04,1.09-.05,1.89-.03-.79-.02-1.19-.08-.22-.09-.27-.05-.91,.02-1.43,0,.09,.02-.07,.03-.03,.05-.03-.07-1.9,0-1.93,.04l.95-.04c.07,.06-1.12,.1-.74,.13-.45-.09-2.53,.04-3.02-.03l.34,.05c-1.96-.03-3.58,.08-5.56,.1,.68-.03,.74-.13,1.96-.09-1.86-.02-.55-.1-1.12-.15-1.45-.04-.75,.09-1.2,.12l1.01-.02c-1.3,.12-3.76-.03-5.77,.05-.15-.03,.41-.02,.68-.03-.9-.06-.87,.01-1.42,.04-.47-.01-.96,0-1.32-.04-.2-.03-.19-.22-.18-.25,.02-.05,.01,0,.08,.11-.06-.95-.06,.13-.11-.4l.02-.19-.08-1.09c-.03-.42,.2-1.06-.34-1.06-.42-.08-.78-.17-.97-.24-1.02-.2-1.19-.26-1.31-.24-.12,0-.18,.06-.89-.27-.75-.47,.17,.05,.26,.04-.4-.19-.83-.42-1.09-.81,.31,.43,1.31,.88,1.27,.75-.52-.18-.87-.37-1.14-.71-.28-.33-.39-.83-.4-1.58v.09c-.08-.67-.07-2.21-.1-3.09,.05,.36,.07,1.33,.1,1.97,.01-.98-.06-3.47-.16-4.32,0-.56,.01-1.78,.06-.96-.02-2-.14-.83-.14-2.55l.07,.07c.06-1.89-.15-3.72-.1-5.51l-.08-.11c.03-.39,.03-1.18,.06-1.33l.04,.91c.05-.77-.08-.9-.05-1.84-.02,0-.06,.79-.09,.79,.11,3.83,.06,7.62,.22,11.49,0-.15,.01-.32,.03-.22-.01,.42,.02,1.2-.02,1.08v-.14c.03,1.01-.05,1.93-.04,2.53,.06,.39,.02,2.09,.1,1.64-.01,.23,0,.48,.07,.72,.14,.21,.1,.1,.37,.45,.24,.28,.41,.38,.41,.41,.01,.02-.12-.03-.34-.23,1.07,.96,2.68,1.18,4,1.4,.08,.03,.1,.08,.1,.26v1.64c0,.2,0,.31,.02,.59,.02,.13,.09,.26,.22,.31,.12,.05,.29,.04,.36,.04h1.04l-.73,.03c.66,.02,2.38-.08,1.82,.03,1.33-.04,3.62,.03,3.72-.08,.88,.11,3.21,.05,5.06,.03-.31-.1,1.52-.03,2.01-.07,.26,.07-1.55,.08-1.57,.13,1.9-.12,5.26,.08,6.07-.11,.23,0,.23,.02,.15,.02l1.21,.04c.22-.03-.57-.05,.3-.06,.72,0,.25,.07,.65,.07,.14-.02,.27-.08,.34-.21,.06-.12,.06-.31,.06-.39v-.57l-.04-1.14v-.48c0-.09,.05-.14,.15-.16,.23-.05,.42-.09,.47-.12,.39-.04,.82-.06,.38,.02,1.03-.22,1.54-.36,2.03-.56,.24-.1,.48-.22,.76-.42,.28-.2,.58-.55,.77-1.07-.15,.37-.2,.45-.26,.59-.07,.11-.18,.34-.66,.64,.4-.15,1.17-.91,1.13-1.97,0-.92,0-1.95,.05-2.8l-.06-.69c0-1.03,.08-1.09,.09-.37,.07-1.76,.04-2.69,.07-4.04,0-.08,.02-.02,.02,.21l.03-1.94c-.01-.2-.04-.9-.09-.75,.04,.24,.05,.65,.01,1.7Z"/><path class="e" d="M47.38,39.26v.03s0-.02,0-.03Z"/><path class="e" d="M42.2,53.77c.02-.19,.03-.35,.03-.48-.01,.09-.02,.22-.03,.48Z"/><path class="e" d="M47.07,25.45c.08,.26,.78,.88,1.31,1.55-.54-.6-.45-.41-.41-.31,.75,.67,.78,.94,2,2.32,0,.06-.59-.61-.7-.66l1.12,1.23c-.2,.07-.5,.06-.62,.1-.87,.01-1.57-.04-2.27,.02-.2,.05-.24,.3-.24,.45v.44l-.02,.82c-.01-1.24-.07-.23-.13-1.14,.05,1.37,.15,4.02,.23,5.93-.09,.22-.1,.31-.17,.08-.09,2.07,.07,.6,.01,2.57l.03-.91c.01,.93,.09,.98,.14,1.27l.02-2.31c.06,.02,.03,1.45,.03,1.88,.06,.69,.07-1.24,.12-.99-.04-.33-.01-1.24-.02-1.82l.03-.1c.05-1.07-.02-1.68,0-2.65,.01-.09,.02-.1,.02-.08-.03-.34-.07-.69-.07-1.28v.45c-.07-.83-.09-2.88-.18-1.54v-.58c0-.18,.07-.44,.3-.45,.39-.01,.78,0,1.17,0-.13,.04-.31,.09-.64,.13-.13,.02-.42,.03-.52,.06-.05,.02-.07,.06-.07,.13v.45l.03,.16,.02-.41c0-.08,0-.15,0-.19,0-.03,0-.03,.01-.05-.06-.04,.43-.03,.64-.05,.51-.03,.8-.07,.47-.11,.43-.1,1.12-.04,1.97-.14-.77-.94-1.53-1.87-2.23-2.61-.04-.13,.6,.58,.9,.87,.34,.39,.58,.67,.58,.73l.65,.71c.13,.14,.16,.16,.16,.13,0-.04-.14-.28,.37,.36l-.55,.07c-.12,0-.22,.03-.38,.03h-.38c-.61-.02-.24-.04,.06-.06,.14,0,.42-.02,.36-.02-.02,0-.09,0-.24,0h-.49l-1.29,.14h1.28l.7-.02c.34-.01,.66-.07,.97-.11-.26-.32-.46-.58-.69-.83-1.71-1.92-3.07-3.49-4.05-4.65l-1.53-1.83-7.04-8.15-3.51-4.09-.87-1.02-.44-.51c-.14-.17-.33-.36-.35-.45-.04-.07,.07-.17,.25-.36l.46-.51c.31-.34,.6-.68,.89-1.02l.1-.12-.09-.13-.07-.11-.11-.16-.15,.09c-.06,.04-.2,.05-.34,.19-.38,.43-.71,.8-.98,1.11l-.34,.39-.08,.09s-.05-.04-.07-.06l-.48-.53c-.17-.18-.33-.33-.5-.49,.28,.39,1.16,1.47,.83,1.14,.05,.04,.12,.11,.2,.2,.09-.09,.18-.22,.31-.37,.28-.31,.61-.69,1-1.14,.12-.05-.72,.84-.5,.61l.16-.17c-.06,.11-.19,.28-.44,.55,.31-.3,.7-.71,1.09-1.14,.05-.06,.15-.08,.27-.13l-.11-.03,.07,.11v-.1l-1.02,1.21-.43,.52c-.15,.15-.17,.38-.07,.49,.31,.44,.17,.34-.08,0-.06-.1-.06-.25,0-.38,.06-.12,.16-.21,.23-.3l.37-.46-.47,.52c-.09,.09-.19,.18-.23,.34-.05,.16,.03,.33,.1,.42,.3,.38,.57,.68,.84,1.02,.55,.65,1.07,1.27,1.59,1.88,1.05,1.23,2.11,2.47,3.37,3.95,.11-.01,.3,.26,.7,.63l.19,.27c-.1-.14,.31,.23-.18-.36,1.4,1.74,1.82,1.93,2.85,3.06l-.11-.05c.83,.94,1.07,1.21,1.81,2.05,1.25,1.6-1.17-1.34-.9-.84l.39,.43c-.25-.22-.56-.45-1-.92,1.33,1.42,1.8,2.14,3.22,3.7-.2-.15-1.48-1.57-1.82-1.96,.46,.54,1.33,1.49,1.33,1.57l.15,.06c.83,.95-.16-.08,.08,.26,1.95,2.25,.43,.16,2.09,2.03Z"/><path class="e" d="M46.53,51.03c.23-.28,.36-.57,.44-.84-.09,.3-.24,.59-.44,.84Z"/><path class="e" d="M46.99,45.22s-.02-.07-.02-.11c0,.11,.01,.15,.02,.11Z"/><path class="e" d="M46.9,44.63c.03-.14,.03,.23,.06,.48-.02-.38,0-1.37-.06-.48Z"/><path class="e" d="M30.97,6.91c-.13-.13-.63-.72-.52-.56l.73,.88-.21-.32Z"/><path class="e" d="M31.43,8.98l-.75,.83-.42,.63c.78-.91,.39-.55,1.17-1.46Z"/><path class="e" d="M29.34,11.34l.15-.21c-.15,.18-.17,.23-.15,.21Z"/><path class="e" d="M29.34,11.4l-.24,.38,.92-1.14-.38,.42s-.26,.26-.31,.29l-.32,.45c.08-.11,.25-.32,.32-.39Z"/><path class="e" d="M28.52,12.35l.08-.06s-.03,.01-.08,.06Z"/><path class="e" d="M26.59,14.41c.21-.2-.15,.27-.18,.35,.75-.83,.71-.94,1.38-1.66-.95,1.18,.39-.39,.74-.74-.24,.18-.64,.58-1.39,1.43l-.05,.12c-.39,.46-.21,.2-.5,.51Z"/><path class="e" d="M22.79,18.97l.54-.72c.12-.1,1.06-1.18,1.06-1.09,.32-.39,.36-.47,.61-.79,.28-.27,.48-.47,.77-.87-1.43,1.6-1.03,1.1-2.25,2.5,.02-.04,.17-.21,.32-.39l-.82,.9c-.01,.14-1.03,1.33-.23,.47Z"/><path class="e" d="M21.6,20.29c.63-.74,.93-1.18,.59-.85l-1.31,1.6c.39-.46,.87-1.02,.72-.75Z"/><path class="e" d="M20.66,21.37c-.28,.27-.74,.7-1.13,1.25,.72-.85,.45-.39,1.13-1.25Z"/><path class="e" d="M16.04,26.65l1.28-1.42c.29-.22-.58,.71-.93,1.18,1.07-1.22,.71-.85,1.48-1.81,.31-.35,.75-.93,1.09-1.36-1.56,1.92-1.8,1.88-2.91,3.41Z"/><polygon class="e" points="18.6 23.8 18.72 23.62 18.14 24.33 18.6 23.8"/><path class="e" d="M13.84,29.84l.49,.02h1.27l.88-.05c.15,0,.29-.02,.38,.06,.09,.08,.08,.23,.07,.39-.01-.13,0-.06-.05-.28,.04,.29,.03,.72,.04,1.07l-.02,.05c.06-.07,.1,1.08,.15,1.57,.05-1.14-.08-.57-.03-1.57l.1,.64c-.04-.68-.08-.85-.11-1.15-.01-.74,.01-.52,.03-.58-.02-.24-.23-.32-.36-.3-.14,0-.25,.02-.38,.03-.26,.02-.58,.04-1.21,.03-.81-.05,.48-.08-.9-.06,.34,.05,.02,.04-.56,.04-.49,.1-.02-.29,.1-.47,.19-.22,.32-.38,.4-.49,.68-.77,1.16-1.24,1.05-1.05-.07-.03,.47-.75,.96-1.36l-1.09,1.36-.45,.39c-.3,.38-.56,.69-.83,1.01-.17,.2-.32,.4-.49,.61-.09,.08,.05,.04,.1,.05h.46Z"/><path class="e" d="M17.13,31.77l.02,.38c0-.15,0-.27-.02-.38Z"/><polygon class="e" points="15.38 27.56 15.13 27.89 15.33 27.68 15.38 27.56"/><path class="e" d="M17.2,32.64c0-.23-.03-.31-.03-.08l.04,.35-.02-.27Z"/><polygon class="e" points="17.16 33.68 17.12 34.25 17.17 34.61 17.16 33.68"/><path class="e" d="M22.07,54.14c.03-.75-.03-.68-.07-.81-.02,1.16,.05,.03,.07,.81Z"/><path class="e" d="M35.81,55.17c-.85-.04-1.61,.02-2.45,.02,.75,.03,1.76,.01,2.45-.02Z"/><path class="e" d="M42.01,54.97s-.15,.02-.18,.02c-.06,0,.04,.01,.18,.01-.18,.04-.52,.07-.77,.11,.61,.02,.85,0,.81-.05,0-.04-.04-.07-.04-.1Z"/><path class="e" d="M46.16,50.95c-.24,.23-.55,.42-.88,.57,.17-.07,.34-.15,.5-.24-.21,.17-.39,.28-.78,.45,.81-.26,1.34-.83,1.16-.77Z"/><path class="e" d="M44.02,51.99l.41-.1c-.12,.02-.2,.02-.41,.1Z"/><path class="e" d="M44.86,51.78l.14-.06c-.19,.07-.39,.12-.58,.17,.09-.01,.21-.03,.44-.12Z"/><path class="e" d="M46.62,50.37c.13-.28,.15-.52,.14-.87v-1.01l-.03,.77c.03,.09,.03,.33,0,.55-.02,.23-.09,.41-.12,.56Z"/><path class="e" d="M46.98,39.99l.07-.21c.03-1.28-.08-2.88,.04-3.64-.05,.56-.05-1.06-.1,.46,.05,.62,.02,2.48,0,3.39Z"/><path class="e" d="M47.15,35.27c.02,.21,.03-.1,.05-.27,.01-.45,0-.95-.04-.7,.08,.37-.06,.49-.01,.97Z"/><path class="e" d="M47.84,29.6c-.09,0-.21,0-.34,.03-.13,.04-.2,.14-.23,.2-.03,.07-.03,.11-.02,.08,.02-.02,.02-.13,.18-.23,.37-.12,.51-.04,.67-.08,.14,0,.22-.02,.29-.03,.14-.02,.21-.05,.49-.07-.47-.02-.89,0-1.13,.02-.13,0-.25,.06-.22,.06,.02,0,.15,0,.32,0Z"/><path class="e" d="M47.02,24.96c.04,.13,.63,.8,.77,.94-.2-.21-.54-.63-.77-.94Z"/><polygon class="e" points="46.55 25.1 46.75 25.35 47.05 25.58 46.55 25.1"/><polygon class="e" points="42.16 20.06 41.57 19.45 42.4 20.4 42.16 20.06"/><path class="e" d="M41.33,19.08l-.73-.84,.24,.31c.34,.42,.25,.25,.49,.53Z"/><path class="e" d="M39.14,16.54c.1,.11,.15,.18,.19,.24l.69,.75-.88-.99Z"/><path class="e" d="M31.2,6.58c.07,.06,.03,0-.05-.11l-.47-.59-.48,.4s.2-.12,.48-.34l.3,.39c.07,.09,.15,.17,.22,.25Z"/></g></g></g></g></g></svg>